<?xml version="1.0" encoding="UTF-8"?>
<svg xmlns="http://www.w3.org/2000/svg" xmlns:xlink="http://www.w3.org/1999/xlink">
  <defs>
    <polygon id="path-1" points="0 0 24 0 24 24 0 24"/>
  </defs>
  <symbol id="image-banner-address" width="334px" height="254px" viewBox="0 0 334 254" version="1.1"
          xmlns="http://www.w3.org/2000/svg" xmlns:xlink="http://www.w3.org/1999/xlink">
    <defs>
      <linearGradient x1="50%" y1="0%" x2="50%" y2="100%" id="linearGradient-1">
        <stop stop-color="#36A7CF" offset="0%"></stop>
        <stop stop-color="#196EA2" offset="49.9471029%"></stop>
        <stop stop-color="#196EA2" offset="100%"></stop>
      </linearGradient>
    </defs>
    <g id="Dashboard-&amp;-Top-Level-Pages" stroke="none" stroke-width="1" fill="none" fill-rule="evenodd">
      <g id="Adressen,-Nav-leer" transform="translate(-787.000000, -356.000000)">
        <g id="Content" transform="translate(56.000000, 104.000000)">
          <g id="Symbol-Adressen" transform="translate(731.000000, 252.000000)">
            <path
              d="M291.333333,182.967639 L291.333333,140.348223 L291.333333,126 L248.666667,126 L206,126 L206,154.554695 L206,254 L334,254 L334,182.967639 M234.444444,239.793528 L220.222222,239.793528 L220.222222,225.587056 L234.444444,225.587056 M234.444444,211.380584 L220.222222,211.380584 L220.222222,197.174112 L234.444444,197.174112 M234.444444,182.967639 L220.222222,182.967639 L220.222222,168.761167 L234.444444,168.761167 M234.444444,154.554695 L220.222222,154.554695 L220.222222,140.348223 L234.444444,140.348223 M277.111111,239.793528 L262.888889,239.793528 L262.888889,225.587056 L277.111111,225.587056 M277.111111,211.380584 L262.888889,211.380584 L262.888889,197.174112 L277.111111,197.174112 M277.111111,182.967639 L262.888889,182.967639 L262.888889,168.761167 L277.111111,168.761167 M277.111111,154.554695 L262.888889,154.554695 L262.888889,140.348223 L277.111111,140.348223 M319.777778,239.793528 L305.555556,239.793528 L305.555556,225.587056 L319.777778,225.587056 M319.777778,211.380584 L305.555556,211.380584 L305.555556,197.174112 L319.777778,197.174112"
              id="Shape-Copy-7" fill="#E1E1E1" fill-rule="nonzero"></path>
            <path
              d="M289.333333,180.967639 L289.333333,138.348223 L289.333333,124 L246.666667,124 L204,124 L204,152.554695 L204,252 L332,252 L332,180.967639 M232.444444,237.793528 L218.222222,237.793528 L218.222222,223.587056 L232.444444,223.587056 M232.444444,209.380584 L218.222222,209.380584 L218.222222,195.174112 L232.444444,195.174112 M232.444444,180.967639 L218.222222,180.967639 L218.222222,166.761167 L232.444444,166.761167 M232.444444,152.554695 L218.222222,152.554695 L218.222222,138.348223 L232.444444,138.348223 M275.111111,237.793528 L260.888889,237.793528 L260.888889,223.587056 L275.111111,223.587056 M275.111111,209.380584 L260.888889,209.380584 L260.888889,195.174112 L275.111111,195.174112 M275.111111,180.967639 L260.888889,180.967639 L260.888889,166.761167 L275.111111,166.761167 M275.111111,152.554695 L260.888889,152.554695 L260.888889,138.348223 L275.111111,138.348223 M317.777778,237.793528 L303.555556,237.793528 L303.555556,223.587056 L317.777778,223.587056 M317.777778,209.380584 L303.555556,209.380584 L303.555556,195.174112 L317.777778,195.174112"
              id="Shape" fill="#FFFFFF" fill-rule="nonzero"></path>
            <g id="Icon-Daten-Copy" transform="translate(2.000000, 51.000000)" fill="#E1E1E1">
              <path
                d="M0,10 C-6.76353751e-16,4.4771525 4.4771525,1.01453063e-15 10,0 L70,0 C75.5228475,-1.01453063e-15 80,4.4771525 80,10 L80,15 L182,15 C187.522847,15 192,19.4771525 192,25 L192,39 L0,39 L0,10 Z"
                id="Combined-Shape"></path>
              <path
                d="M0,51 L192,51 L192,137.454976 C192,142.977824 187.522847,147.454976 182,147.454976 L10,147.454976 C4.4771525,147.454976 6.76353751e-16,142.977824 0,137.454976 L0,51 L0,51 Z"
                id="Rectangle-Copy-3"></path>
            </g>
            <g id="Icon-Daten" transform="translate(0.000000, 49.000000)" fill="#FFFFFF">
              <path
                d="M0,10 C-6.76353751e-16,4.4771525 4.4771525,1.01453063e-15 10,0 L70,0 C75.5228475,-1.01453063e-15 80,4.4771525 80,10 L80,15 L182,15 C187.522847,15 192,19.4771525 192,25 L192,39 L0,39 L0,10 Z"
                id="Combined-Shape"></path>
              <path
                d="M0,51 L192,51 L192,137.454976 C192,142.977824 187.522847,147.454976 182,147.454976 L10,147.454976 C4.4771525,147.454976 6.76353751e-16,142.977824 0,137.454976 L0,51 L0,51 Z"
                id="Rectangle-Copy-3"></path>
            </g>
            <path
              d="M262,58 C277.47,58 290,45.47 290,30 C290,14.53 277.47,2 262,2 C246.53,2 234,14.53 234,30 C234,45.47 246.53,58 262,58 Z M262,72 C243.31,72 206,81.38 206,100 L206,114 L318,114 L318,100 C318,81.38 280.69,72 262,72 Z"
              id="Shape-Copy-5" fill="#E1E1E1" fill-rule="nonzero"></path>
            <path
              d="M260,56 C275.47,56 288,43.47 288,28 C288,12.53 275.47,0 260,0 C244.53,0 232,12.53 232,28 C232,43.47 244.53,56 260,56 Z M260,70 C241.31,70 204,79.38 204,98 L204,112 L316,112 L316,98 C316,79.38 278.69,70 260,70 Z"
              id="Shape" fill="#FFFFFF" fill-rule="nonzero"></path>
            <path
              d="M109,192.034792 L155.965208,192.034792 L155.965208,192.034792 L155.965208,239 C155.965208,240.104569 156.860638,241 157.965208,241 L179.320988,241 C180.425557,241 181.320988,240.104569 181.320988,239 L181.320988,192.034792 L181.320988,192.034792 L225,192.034792 C226.104569,192.034792 227,191.139362 227,190.034792 L227,171.965208 C227,170.860638 226.104569,169.965208 225,169.965208 L181.320988,169.965208 L181.320988,169.965208 L181.320988,123 C181.320988,121.895431 180.425557,121 179.320988,121 L157.965208,121 C156.860638,121 155.965208,121.895431 155.965208,123 L155.965208,169.965208 L155.965208,169.965208 L109,169.965208 C107.895431,169.965208 107,170.860638 107,171.965208 L107,190.034792 C107,191.139362 107.895431,192.034792 109,192.034792 Z"
              id="Path" stroke="url(#linearGradient-1)" stroke-width="8" fill="#F3F3F3"></path>
          </g>
        </g>
      </g>
    </g>
  </symbol>
  <symbol id="image-banner-dataset" width="322px" height="214px" viewBox="0 0 322 214" version="1.1"
          xmlns="http://www.w3.org/2000/svg" xmlns:xlink="http://www.w3.org/1999/xlink">
    <defs>
      <linearGradient x1="50%" y1="-2.48949813e-15%" x2="50%" y2="100%" id="linearGradient-1">
        <stop stop-color="#36A7CF" offset="0%"></stop>
        <stop stop-color="#196EA2" offset="49.9589248%"></stop>
        <stop stop-color="#196EA2" offset="100%"></stop>
      </linearGradient>
    </defs>
    <g id="Dashboard-&amp;-Top-Level-Pages" stroke="none" stroke-width="1" fill="none" fill-rule="evenodd">
      <g id="Daten,-Nav-leer" transform="translate(-790.000000, -376.000000)">
        <g id="Content" transform="translate(56.000000, 104.000000)">
          <g id="Symbol-Daten" transform="translate(734.000000, 272.000000)">
            <g id="Icon-Daten-Copy" transform="translate(2.000000, 2.000000)" fill="#E1E1E1">
              <path
                d="M0,10 C-6.76353751e-16,4.4771525 4.4771525,1.01453063e-15 10,0 L70,0 C75.5228475,-1.01453063e-15 80,4.4771525 80,10 L80,15 L182,15 C187.522847,15 192,19.4771525 192,25 L192,39 L0,39 L0,10 Z"
                id="Combined-Shape"></path>
              <path
                d="M0,51 L192,51 L192,137.454976 C192,142.977824 187.522847,147.454976 182,147.454976 L10,147.454976 C4.4771525,147.454976 6.76353751e-16,142.977824 0,137.454976 L0,51 L0,51 Z"
                id="Rectangle-Copy-3"></path>
            </g>
            <g id="Icon-Daten" fill="#FFFFFF">
              <path
                d="M0,10 C-6.76353751e-16,4.4771525 4.4771525,1.01453063e-15 10,0 L70,0 C75.5228475,-1.01453063e-15 80,4.4771525 80,10 L80,15 L182,15 C187.522847,15 192,19.4771525 192,25 L192,39 L0,39 L0,10 Z"
                id="Combined-Shape"></path>
              <path
                d="M0,51 L192,51 L192,137.454976 C192,142.977824 187.522847,147.454976 182,147.454976 L10,147.454976 C4.4771525,147.454976 6.76353751e-16,142.977824 0,137.454976 L0,51 L0,51 Z"
                id="Rectangle-Copy-3"></path>
            </g>
            <g id="baseline-insert_drive_file-24px-copy" transform="translate(206.000000, 53.000000)" fill="#E1E1E1"
               fill-rule="nonzero">
              <path
                d="M9.6696167,8.52651283e-14 C1.6946167,8.52651283e-14 0.0725,1.2075 0.0725,10.0625 L0,150.922146 C0,159.777146 1.6946167,161 9.6696167,161 L106.333333,161 C114.308333,161 116,159.777146 116,150.922146 L116,50.3125 L67.6666667,8.52651283e-14 L9.6696167,8.52651283e-14 Z M65,52.0474138 L65,14.5732759 L101,52.0474138 L65,52.0474138 Z"
                id="Shape"></path>
              <path
                d="M9.6696167,8.52651283e-14 C1.6946167,8.52651283e-14 0.0725,1.2075 0.0725,10.0625 L0,150.922146 C0,159.777146 1.6946167,161 9.6696167,161 L106.333333,161 C114.308333,161 116,159.777146 116,150.922146 L116,50.3125 L67.6666667,8.52651283e-14 L9.6696167,8.52651283e-14 Z M65,52.0474138 L65,14.5732759 L101,52.0474138 L65,52.0474138 Z"
                id="Shape-Copy-5"></path>
            </g>
            <g id="baseline-insert_drive_file-24px" transform="translate(204.000000, 51.000000)" fill="#FFFFFF"
               fill-rule="nonzero">
              <path
                d="M9.6696167,8.52651283e-14 C1.6946167,8.52651283e-14 0.0725,1.2075 0.0725,10.0625 L0,150.922146 C0,159.777146 1.6946167,161 9.6696167,161 L106.333333,161 C114.308333,161 116,159.777146 116,150.922146 L116,50.3125 L67.6666667,8.52651283e-14 L9.6696167,8.52651283e-14 Z M65,52.0474138 L65,14.5732759 L101,52.0474138 L65,52.0474138 Z"
                id="Shape"></path>
            </g>
            <path
              d="M102,159.034792 L148.965208,159.034792 L148.965208,159.034792 L148.965208,206 C148.965208,207.104569 149.860638,208 150.965208,208 L172.320988,208 C173.425557,208 174.320988,207.104569 174.320988,206 L174.320988,159.034792 L174.320988,159.034792 L218,159.034792 C219.104569,159.034792 220,158.139362 220,157.034792 L220,138.965208 C220,137.860638 219.104569,136.965208 218,136.965208 L174.320988,136.965208 L174.320988,136.965208 L174.320988,90 C174.320988,88.8954305 173.425557,88 172.320988,88 L150.965208,88 C149.860638,88 148.965208,88.8954305 148.965208,90 L148.965208,136.965208 L148.965208,136.965208 L102,136.965208 C100.895431,136.965208 100,137.860638 100,138.965208 L100,157.034792 C100,158.139362 100.895431,159.034792 102,159.034792 Z"
              id="Path" stroke="url(#linearGradient-1)" stroke-width="8" fill="#F3F3F3"></path>
          </g>
        </g>
      </g>
    </g>
  </symbol>
</svg>
