<svg>
  <defs>
    <svg id="show-changes" width="22px" height="20px" viewBox="-1 -1 24 22" version="1.1" xmlns="http://www.w3.org/2000/svg" xmlns:xlink="http://www.w3.org/1999/xlink">
      <!-- Generator: Sketch 61 (89581) - https://sketch.com -->
      <desc>Created with Sketch.</desc>
      <g id="Icons" stroke="none" stroke-width="1" fill="none" fill-rule="evenodd">
        <g id="Toolbar" transform="translate(-355.000000, -550.000000)">
          <g id="Symbol" transform="translate(294.000000, 51.000000)">
            <g id="outline-vertical_split-24px" transform="translate(60.000000, 497.000000)">
              <polygon id="Path" points="0 0 24 0 24 24 0 24"></polygon>
              <polygon id="Path-2" fill="#000000" points="1 18 4.99840841 14 4.99840841 17 19.0379327 17 19.0379327 14 23 18 19.0379327 22 19.0379327 19 4.99840841 19 5.00842948 22"></polygon>
              <path d="M3,6 L11,6 L11,8 L3,8 L3,6 Z M3,10 L11,10 L11,12 L3,12 L3,10 Z M3,2 L11,2 L11,4 L3,4 L3,2 Z M19,4 L19,10 L15,10 L15,4 L19,4 L19,4 Z M21,2 L13,2 L13,12 L21,12 L21,2 Z" id="Shape" fill="#000000" fill-rule="nonzero"></path>
            </g>
          </g>
        </g>
      </g>
    </svg>
    <svg id="discard-changes" width="18px" height="20px" viewBox="-2 -2 22 24" version="1.1" xmlns="http://www.w3.org/2000/svg" xmlns:xlink="http://www.w3.org/1999/xlink">
      <!-- Generator: Sketch 61 (89581) - https://sketch.com -->
      <desc>Created with Sketch.</desc>
      <defs>
        <polygon id="path-1" points="0 0 24 0 24 24 0 24"></polygon>
      </defs>
      <g id="Icons" stroke="none" stroke-width="1" fill="none" fill-rule="evenodd">
        <g id="Toolbar" transform="translate(-357.000000, -510.000000)">
          <g id="Symbol" transform="translate(294.000000, 51.000000)">
            <g id="outline-vertical_split-24px" transform="translate(60.000000, 457.000000)">
              <mask id="mask-2" fill="white">
                <use xlink:href="#path-1"></use>
              </mask>
              <g id="Path"></g>
              <path d="M3,16 L11,16 L11,18 L3,18 L3,16 Z M3,20 L11,20 L11,22 L3,22 L3,20 Z M3,12 L11,12 L11,14 L3,14 L3,12 Z M19,14 L19,20 L15,20 L15,14 L19,14 L19,14 Z M21,12 L13,12 L13,22 L21,22 L21,12 Z" id="Shape" fill="#000000" fill-rule="nonzero" mask="url(#mask-2)"></path>
              <path d="M12.2330239,2.87933561 C9.90278456,2.87933561 7.79237909,3.74987787 6.16560821,5.16560821 L3,2 L3,9.91402052 L10.9140205,9.91402052 L7.7308256,6.7308256 C8.9531021,5.71079629 10.5095261,5.07767465 12.2330239,5.07767465 C15.345872,5.07767465 17.9926722,7.10893991 18.9159746,9.91402052 L21,9.22813874 C19.7777235,5.54372252 16.3219345,2.87933561 12.2330239,2.87933561 Z" id="Path-Copy-4" fill="#000000" fill-rule="nonzero" mask="url(#mask-2)"></path>
            </g>
          </g>
        </g>
      </g>
    </svg>
    <svg id="doc-new" width="14px" height="18px" viewBox="-3 -3 20 24" version="1.1" xmlns="http://www.w3.org/2000/svg" xmlns:xlink="http://www.w3.org/1999/xlink">
      <!-- Generator: Sketch 61 (89581) - https://sketch.com -->
      <desc>Created with Sketch.</desc>
      <g id="Icons" stroke="none" stroke-width="1" fill="none" fill-rule="evenodd">
        <g id="Toolbar" transform="translate(-359.000000, -151.000000)">
          <g id="Symbol" transform="translate(294.000000, 51.000000)">
            <g id="outline-note_add-24px" transform="translate(60.000000, 97.000000)">
              <polygon id="Path" points="0 0 24 0 24 24 0 24"></polygon>
              <path d="M12.875,10.75 L11.125,10.75 L11.125,13.375 L8.5,13.375 L8.5,15.125 L11.125,15.125 L11.125,17.75 L12.875,17.75 L12.875,15.125 L15.5,15.125 L15.5,13.375 L12.875,13.375 L12.875,10.75 Z M13.75,3 L6.75,3 C5.7875,3 5,3.81 5,4.8 L5,19.2 C5,20.19 5.77875,21 6.74125,21 L17.25,21 C18.2125,21 19,20.19 19,19.2 L19,8.4 L13.75,3 Z M17.3,19.25 L6.8,19.25 L6.8,4.75 L13.0065104,4.75 L13.0065104,8.98741319 L17.3,8.98741319 L17.3,19.25 Z" id="Shape" fill="#000000" fill-rule="nonzero"></path>
            </g>
          </g>
        </g>
      </g>
    </svg>
    <svg id="preview" width="14px" height="18px" viewBox="-3 -3 20 24" version="1.1" xmlns="http://www.w3.org/2000/svg" xmlns:xlink="http://www.w3.org/1999/xlink">
      <!-- Generator: Sketch 61 (89581) - https://sketch.com -->
      <desc>Created with Sketch.</desc>
      <g id="Icons" stroke="none" stroke-width="1" fill="none" fill-rule="evenodd">
        <g id="Toolbar" transform="translate(-359.000000, -191.000000)">
          <g id="Symbol" transform="translate(294.000000, 51.000000)">
            <g id="outline-description-24px" transform="translate(60.000000, 137.000000)">
              <polygon id="Path" points="0 0 24 0 24 24 0 24"></polygon>
              <path d="M15.5,15.5 L15.5,17.25 L8.5,17.25 L8.5,15.5 L15.5,15.5 Z M15.5,12 L15.5,13.75 L8.5,13.75 L8.5,12 L15.5,12 Z M13.75,3 L6.75,3 C5.7875,3 5,3.81 5,4.8 L5,19.2 C5,20.19 5.77875,21 6.74125,21 L17.25,21 C18.2125,21 19,20.19 19,19.2 L19,8.4 L13.75,3 Z M17.3,19.25 L6.8,19.25 L6.8,4.75 L13.0065104,4.75 L13.0065104,8.98741319 L17.3,8.98741319 L17.3,19.25 Z" id="Shape" fill="#000000" fill-rule="nonzero"></path>
            </g>
          </g>
        </g>
      </g>
    </svg>
    <svg id="preview-iso" width="14px" height="18px" viewBox="-3 -3 20 24" version="1.1" xmlns="http://www.w3.org/2000/svg" xmlns:xlink="http://www.w3.org/1999/xlink">
      <!-- Generator: Sketch 61 (89581) - https://sketch.com -->
      <desc>Created with Sketch.</desc>
      <g id="Icons" stroke="none" stroke-width="1" fill="none" fill-rule="evenodd">
        <g id="Toolbar" transform="translate(-359.000000, -231.000000)">
          <g id="Symbol" transform="translate(294.000000, 51.000000)">
            <g id="outline-insert_drive_file-24px" transform="translate(60.000000, 177.000000)">
              <polygon id="Path" points="0 0 24 0 24 24 0 24"></polygon>
              <path d="M13.75,3 L6.75,3 C5.7875,3 5,3.81 5,4.8 L5,19.2 C5,20.19 5.77875,21 6.74125,21 L17.25,21 C18.2125,21 19,20.19 19,19.2 L19,8.4 L13.75,3 Z M17.25,19.25 L6.75,19.25 L6.75,4.75 L13.0064392,4.75 L13.0064392,8.98741319 L17.25,8.98741319 L17.25,19.25 Z" id="Shape" fill="#000000" fill-rule="nonzero"></path>
              <text id="ISO-Copy" font-family="Roboto-Bold, Roboto" font-size="6" font-weight="bold" line-spacing="16" letter-spacing="-0.1" fill="#000000">
                <tspan x="7.35996094" y="12">ISO</tspan>
              </text>
            </g>
          </g>
        </g>
      </g>
    </svg>
    <svg id="copy" width="22px" height="20px" viewBox="-1 -1 24 22" version="1.1" xmlns="http://www.w3.org/2000/svg" xmlns:xlink="http://www.w3.org/1999/xlink">
      <!-- Generator: Sketch 61 (89581) - https://sketch.com -->
      <desc>Created with Sketch.</desc>
      <g id="Icons" stroke="none" stroke-width="1" fill="none" fill-rule="evenodd">
        <g id="Toolbar" transform="translate(-355.000000, -310.000000)">
          <g id="Symbol" transform="translate(294.000000, 51.000000)">
            <g id="outline-subdirectory_arrow_right-24px" transform="translate(60.000000, 257.000000)">
              <polygon id="Path-Copy" points="0 0 24 0 24 24 0 24"></polygon>
              <path d="M18.875,2 L23,6.2 L23,14.6 C23,15.37 22.38125,16 21.625,16 L21.625,16 L18.499,16 L18.499,14.5 L21.5,14.5 L21.5,7 L18,7 L18,3.5 L13.5,3.5 L13.499,6.5 L12.004,6.5 L12.006875,3.4 C12.006875,2.67529412 12.5488819,2.07460208 13.243138,2.00644006 L13.375,2 L18.875,2 Z" id="Combined-Shape" fill="#000000" fill-rule="nonzero"></path>
              <path d="M12.875,8 L7.375,8 C6.61875,8 6.006875,8.63 6.006875,9.4 L6,20.6 C6,21.37 6.611875,22 7.368125,22 L15.625,22 C16.38125,22 17,21.37 17,20.6 L17,12.2 L12.875,8 Z M7.5,20.5 L7.5,9.5 L12,9.5 L12,13 L15.5,13 L15.5,20.5 L7.5,20.5 Z" id="Shape-Copy" fill="#000000" fill-rule="nonzero"></path>
              <polyline id="Line-2" stroke="#000000" stroke-width="1.5" points="6 15 2 15 2 4"></polyline>
            </g>
          </g>
        </g>
      </g>
    </svg>
    <svg id="previous" width="11px" height="14px" viewBox="0 0 11 14" version="1.1" xmlns="http://www.w3.org/2000/svg" xmlns:xlink="http://www.w3.org/1999/xlink">
      <!-- Generator: Sketch 61 (89581) - https://sketch.com -->
      <desc>Created with Sketch.</desc>
      <g id="Icons" stroke="none" stroke-width="1" fill="none" fill-rule="evenodd">
        <g id="Toolbar" transform="translate(-360.000000, -633.000000)">
          <g id="Symbol" transform="translate(294.000000, 51.000000)">
            <g id="baseline-play_arrow-24px" transform="translate(60.000000, 577.000000)">
              <polygon id="Path" points="0 0 24 0 24 24 0 24"></polygon>
              <polygon id="Path" fill="#000000" fill-rule="nonzero" transform="translate(11.500000, 12.000000) scale(-1, 1) translate(-11.500000, -12.000000) " points="6,5 6,19 17,12"></polygon>
            </g>
          </g>
        </g>
      </g>
    </svg>
    <svg id="next" width="11px" height="14px" viewBox="0 0 11 14" version="1.1" xmlns="http://www.w3.org/2000/svg" xmlns:xlink="http://www.w3.org/1999/xlink">
      <!-- Generator: Sketch 61 (89581) - https://sketch.com -->
      <desc>Created with Sketch.</desc>
      <g id="Icons" stroke="none" stroke-width="1" fill="none" fill-rule="evenodd">
        <g id="Toolbar" transform="translate(-360.000000, -633.000000)">
          <g id="Symbol" transform="translate(294.000000, 51.000000)">
            <g id="baseline-play_arrow-24px" transform="translate(60.000000, 577.000000)">
              <polygon id="Path" points="0 0 24 0 24 24 0 24"></polygon>
              <polygon id="Path" fill="#000000" fill-rule="nonzero" transform="translate(11.500000, 12.000000) scale(-1, 1) translate(-11.500000, -12.000000) " points="17,5 17,19 6,12"></polygon>
            </g>
          </g>
        </g>
      </g>
    </svg>
  </defs>
</svg>
