<?xml version="1.0" encoding="UTF-8"?><!DOCTYPE svg PUBLIC "-//W3C//DTD SVG 1.1//EN" "http://www.w3.org/Graphics/SVG/1.1/DTD/svg11.dtd">
<svg xmlns="http://www.w3.org/2000/svg" xmlns:xlink="http://www.w3.org/1999/xlink">
  <symbol id="Amtsintern" viewBox="0 0 12 12">
    <defs>
      <linearGradient id="myGradient">
        <stop offset="50%" stop-color="#F27100" />
        <stop offset="50%" stop-color="#000000" />
      </linearGradient>
    </defs>
    <desc>Created with Sketch.</desc>
    <g id="Icons" stroke="none" stroke-width="1" fill="none" fill-rule="evenodd">
      <g id="Datensatz" transform="translate(-362.000000, -678.000000)">
        <g id="Ver&#xF6;ffentlicht" transform="translate(314.000000, 51.000000)">
          <g id="Amtsintern" transform="translate(36.000000, 615.000000)">
            <polygon id="Path" points="0 0 24 0 24 24 0 24"/>
            <g id="A" transform="translate(12.000000, 12.000000)">
              <rect id="Rectangle" stroke="#FFFFFF" fill="#333333" x="0.5" y="0.5" width="11" height="11"/>
              <polygon id="Path-3" fill="#FFFFFF"
                       points="3.09 9.20018858 5.51599487 2.8 6.51428589 2.8 8.92837891 9.20018858 7.77325806 9.20018858 6.00918945 4.16109556 4.25392517 9.20018858"/>
              <polygon id="Path-13" points="4.06517029 6.84634857 7.91766357 6.84634857 8.23587036 7.75365143 3.75 7.75365143"/>
            </g>
          </g>
        </g>
      </g>
    </g>
  </symbol>
  <symbol id="Datensammlung" viewBox="0 0 16 18">
    <defs>
      <linearGradient id="myGradient">
        <stop offset="50%" stop-color="#F27100" />
        <stop offset="50%" stop-color="#000000" />
      </linearGradient>
    </defs>
    <desc>Created with Sketch.</desc>
    <g id="Icons" stroke="none" stroke-width="1" fill="none" fill-rule="evenodd">
      <g id="Datensatz" transform="translate(-358.000000, -110.000000)">
        <g id="Ver&#xF6;ffentlicht" transform="translate(314.000000, 51.000000)">
          <g id="baseline-layers-24px" transform="translate(40.000000, 56.000000)">
            <polygon id="Path" points="0 0 24 0 24 24 0 24"/>
            <path
                d="M11.9916667 19.0105139 5.85 14.5046817 4.5 15.495493 12 21 19.5 15.495493 18.1416667 14.4968182 11.9916667 19.0105139ZM11.9916667 15.5114823 5.85 11.0056501 4.5 11.9964614 12 17.5009684 19.5 11.9964614 18.1416667 10.9977865 11.9916667 15.5114823ZM12 13.9969565 18.1333333 9.49605931 19.5 8.49847825 12 3 4.5 8.49847825 5.85833333 9.49605931 12 13.9969565Z"
                id="Shape" fill-rule="nonzero"/>
          </g>
        </g>
      </g>
    </g>
  </symbol>
  <symbol id="Fachaufgabe" viewBox="-4 -4 19 23">
    <defs>
      <linearGradient id="myGradient">
        <stop offset="50%" stop-color="#F27100" />
        <stop offset="50%" stop-color="#000000" />
      </linearGradient>
    </defs>
    <desc>Created with Sketch.</desc>
    <g id="Icons" stroke="none" stroke-width="1" fill="none" fill-rule="evenodd">
      <g id="Datensatz" transform="translate(-360.000000, -150.000000)">
        <g id="Ver&#xF6;ffentlicht" transform="translate(314.000000, 51.000000)">
          <g id="baseline-insert_drive_file-24px" transform="translate(40.000000, 95.000000)">
            <polygon id="Path" points="0 0 24 0 24 24 0 24"/>
            <path
                d="M7.00030518 4C6.17530518 4 6.0075 4.12 6.0075 5L6 18.9984741C6 19.8784741 6.17530518 20 7.00030518 20L17 20C17.825 20 18 19.8784741 18 18.9984741L18 9 13 4 7.00030518 4ZM12.5 9.5 12.5 5 17 9.5 12.5 9.5Z"
                id="Shape" fill-rule="nonzero"/>
          </g>
        </g>
      </g>
    </g>
  </symbol>
  <symbol id="Geodatendienst" viewBox="0 0 16 16">
    <defs>
      <linearGradient id="myGradient">
        <stop offset="50%" stop-color="#F27100" />
        <stop offset="50%" stop-color="#000000" />
      </linearGradient>
    </defs>
    <desc>Created with Sketch.</desc>
    <g id="Icons" stroke="none" stroke-width="1" fill="none" fill-rule="evenodd">
      <g id="Datensatz" transform="translate(-358.000000, -191.000000)">
        <g id="Ver&#xF6;ffentlicht" transform="translate(314.000000, 51.000000)">
          <g id="baseline-settings-20px" transform="translate(40.000000, 136.000000)">
            <polygon id="Path" points="0 0 24 0 24 24 0 24"/>
            <path
                d="M17.9288891 12.78C17.9587826 12.53 17.9787117 12.27 17.9787117 12 17.9787117 11.73 17.9587826 11.47 17.9189246 11.22L19.6029284 9.9C19.7523961 9.78 19.7922542 9.56 19.7025735 9.39L18.1082504 6.62C18.0086052 6.44 17.7993503 6.38 17.619989 6.44L15.6370496 7.24C15.2185398 6.92 14.7801009 6.66 14.2918395 6.46L13.9929039 4.34C13.9630103 4.14 13.7936135 4 13.5943231 4L10.4056769 4C10.2063865 4 10.0469542 4.14 10.0170606 4.34L9.71812504 6.46C9.22986359 6.66 8.78146021 6.93 8.37291491 7.24L6.38997554 6.44C6.21061419 6.37 6.00135928 6.44 5.90171409 6.62L4.30739097 9.39C4.20774578 9.57 4.24760386 9.78 4.40703617 9.9L6.09103996 11.22C6.05118188 11.47 6.02128832 11.74 6.02128832 12 6.02128832 12.26 6.04121736 12.53 6.08107544 12.78L4.39707165 14.1C4.24760386 14.22 4.20774578 14.44 4.29742645 14.61L5.89174957 17.38C5.99139476 17.56 6.20064967 17.62 6.38001102 17.56L8.3629504 16.76C8.78146021 17.08 9.21989907 17.34 9.70816052 17.54L10.0070961 19.66C10.0469542 19.86 10.2063865 20 10.4056769 20L13.5943231 20C13.7936135 20 13.9630103 19.86 13.9829394 19.66L14.281875 17.54C14.7701364 17.34 15.2185398 17.07 15.6270851 16.76L17.6100245 17.56C17.7893858 17.63 17.9986407 17.56 18.0982859 17.38L19.692609 14.61C19.7922542 14.43 19.7523961 14.22 19.5929638 14.1L17.9288891 12.78 17.9288891 12.78ZM12 15C10.35 15 9 13.65 9 12 9 10.35 10.35 9 12 9 13.65 9 15 10.35 15 12 15 13.65 13.65 15 12 15Z"
                id="Shape" fill-rule="nonzero"/>
          </g>
        </g>
      </g>
    </g>
  </symbol>
  <symbol id="Geodatensatz" viewBox="0 0 18 18">
    <defs>
      <linearGradient id="myGradient">
        <stop offset="50%" stop-color="#F27100" />
        <stop offset="50%" stop-color="#000000" />
      </linearGradient>
    </defs>
    <desc>Created with Sketch.</desc>
    <g id="Icons" stroke="none" stroke-width="1" fill="none" fill-rule="evenodd">
      <g id="Datensatz" transform="translate(-357.000000, -229.000000)">
        <g id="Ver&#xF6;ffentlicht" transform="translate(314.000000, 51.000000)">
          <g id="baseline-public-24px" transform="translate(40.000000, 175.000000)">
            <polygon id="Path" points="0 0 24 0 24 24 0 24"/>
            <path
                d="M12 3C7.032 3 3 7.032 3 12 3 16.968 7.032 21 12 21 16.968 21 21 16.968 21 12 21 7.032 16.968 3 12 3ZM11.1 19.137C7.545 18.696 4.8 15.672 4.8 12 4.8 11.442 4.872 10.911 4.989 10.389L9.3 14.7 9.3 15.6C9.3 16.59 10.11 17.4 11.1 17.4L11.1 19.137ZM17.31 16.851C17.076 16.122 16.41 15.6 15.6 15.6L14.7 15.6 14.7 12.9C14.7 12.405 14.295 12 13.8 12L8.4 12 8.4 10.2 10.2 10.2C10.695 10.2 11.1 9.795 11.1 9.3L11.1 7.5 12.9 7.5C13.89 7.5 14.7 6.69 14.7 5.7L14.7 5.331C17.337 6.402 19.2 8.985 19.2 12 19.2 13.872 18.48 15.573 17.31 16.851Z"
                id="Shape" fill-rule="nonzero"/>
          </g>
        </g>
      </g>
    </g>
  </symbol>
  <symbol id="Informationssystem" viewBox="0 0 14 16">
    <defs>
      <linearGradient id="myGradient">
        <stop offset="50%" stop-color="#F27100" />
        <stop offset="50%" stop-color="#000000" />
      </linearGradient>
    </defs>
    <desc>Created with Sketch.</desc>
    <g id="Icons" stroke="none" stroke-width="1" fill="none" fill-rule="evenodd">
      <g id="Datensatz" transform="translate(-359.000000, -271.000000)">
        <g id="Ver&#xF6;ffentlicht" transform="translate(314.000000, 51.000000)">
          <g id="baseline-dashboard-24px" transform="translate(40.000000, 216.000000)">
            <polygon id="Path" points="0 0 24 0 24 24 0 24"/>
            <path d="M5 13 11 13 11 4 5 4 5 13ZM5 20 11 20 11 15 5 15 5 20ZM13 20 19 20 19 11 13 11 13 20ZM13 4 13 9 19 9 19 4 13 4Z" id="Shape" fill="#000000"
                  fill-rule="nonzero"/>
          </g>
        </g>
      </g>
    </g>
  </symbol>
  <symbol id="Intranet" viewBox="0 0 12 12">
    <defs>
      <linearGradient id="myGradient">
        <stop offset="50%" stop-color="#F27100" />
        <stop offset="50%" stop-color="#000000" />
      </linearGradient>
    </defs>
    <desc>Created with Sketch.</desc>
    <g id="Icons" stroke="none" stroke-width="1" fill="none" fill-rule="evenodd">
      <g id="Datensatz" transform="translate(-362.000000, -718.000000)">
        <g id="Ver&#xF6;ffentlicht" transform="translate(314.000000, 51.000000)">
          <g id="Intranet" transform="translate(36.000000, 655.000000)">
            <polygon id="Path" points="0 0 24 0 24 24 0 24"/>
            <circle id="Oval-Copy-4" stroke="#FFFFFF" fill="#979797" cx="18" cy="18" r="5.5"/>
          </g>
        </g>
      </g>
    </g>
  </symbol>
  <symbol id="Literatur-Dokument" viewBox="0 0 18 16">
    <defs>
      <linearGradient id="myGradient">
        <stop offset="50%" stop-color="#F27100" />
        <stop offset="50%" stop-color="#000000" />
      </linearGradient>
    </defs>
    <desc>Created with Sketch.</desc>
    <g id="Icons" stroke="none" stroke-width="1" fill="none" fill-rule="evenodd">
      <g id="Datensatz" transform="translate(-357.000000, -311.000000)">
        <g id="Ver&#xF6;ffentlicht" transform="translate(314.000000, 51.000000)">
          <g id="baseline-import_contacts-24px" transform="translate(40.000000, 256.000000)">
            <mask id="mask-2" fill="white">
              <use xlink:href="#path-1"/>
            </mask>
            <g id="Path"/>
            <path
                d="M19.3636364 4.94117647C18.4554545 4.63235294 17.4572727 4.5 16.5 4.5 14.9045455 4.5 13.1863636 4.85294118 12 5.82352941 10.8136364 4.85294118 9.09545455 4.5 7.5 4.5 5.90454545 4.5 4.18636364 4.85294118 3 5.82352941L3 18.75C3 18.9705882 3.20454545 19.1911765 3.40909091 19.1911765 3.49090909 19.1911765 3.53181818 19.1470588 3.61363636 19.1470588 4.71818182 18.5735294 6.31363636 18.1764706 7.5 18.1764706 9.09545455 18.1764706 10.8136364 18.5294118 12 19.5 13.1045455 18.75 15.1090909 18.1764706 16.5 18.1764706 17.85 18.1764706 19.2409091 18.4411765 20.3863636 19.1029412 20.4681818 19.1470588 20.5090909 19.1470588 20.5909091 19.1470588 20.7954545 19.1470588 21 18.9264706 21 18.7058824L21 5.82352941C20.5090909 5.42647059 19.9772727 5.16176471 19.3636364 4.94117647ZM19.3636364 16.8529412C18.4636364 16.5441176 17.4818182 16.4117647 16.5 16.4117647 15.1090909 16.4117647 13.1045455 16.9852941 12 17.7352941L12 7.58823529C13.1045455 6.83823529 15.1090909 6.26470588 16.5 6.26470588 17.4818182 6.26470588 18.4636364 6.39705882 19.3636364 6.70588235L19.3636364 16.8529412Z"
                id="Shape" fill-rule="nonzero" mask="url(#mask-2)"/>
          </g>
        </g>
      </g>
    </g>
  </symbol>
  <symbol id="Projekt" viewBox="0 0 16 17">
    <defs>
      <linearGradient id="myGradient">
        <stop offset="50%" stop-color="#F27100" />
        <stop offset="50%" stop-color="#000000" />
      </linearGradient>
    </defs>
    <desc>Created with Sketch.</desc>
    <g id="Icons" stroke="none" stroke-width="1" fill="none" fill-rule="evenodd">
      <g id="Datensatz" transform="translate(-358.000000, -349.000000)">
        <g id="Ver&#xF6;ffentlicht" transform="translate(314.000000, 51.000000)">
          <g id="baseline-assignment-24px" transform="translate(40.000000, 295.000000)">
            <polygon id="Path" points="0 0 24 0 24 24 0 24"/>
            <path
                d="M18.2222222 5.00105168 15 5.00105168C14.6266667 4 13.5 3 12 3 10.5 3 9.37333333 4.01505168 9 5.00105168L5.75 5.00105168C4.77222222 5.00105168 4 5.815 4 6.75L4 18.3C4 19.235 4.8 20 5.77777778 20L18.2222222 20C19.2 20 20 19.235 20 18.3L20 6.75C20 5.815 19.2 5.00105168 18.2222222 5.00105168ZM12 5C12.55 5 13 5.45 13 6 13 6.55 12.55 7 12 7 11.45 7 11 6.55 11 6 11 5.45 11.45 5 12 5ZM17 17 7 17 7 16 17 16 17 17ZM17 13.5 7 13.5 7 12.5 17 12.5 17 13.5ZM17 10 7 10 7 9 17 9 17 10Z"
                id="Shape" fill-rule="nonzero"/>
          </g>
        </g>
      </g>
    </g>
  </symbol>
  <symbol id="Einheit" viewBox="0 0 16 16">
    <defs>
      <linearGradient id="myGradient">
        <stop offset="50%" stop-color="#F27100" />
        <stop offset="50%" stop-color="#000000" />
      </linearGradient>
    </defs>
    <desc>Created with Sketch.</desc>
    <g id="Icons" stroke="none" stroke-width="1" fill="none" fill-rule="evenodd">
      <g id="Datensatz" transform="translate(-358.000000, -509.000000)">
        <g id="Ver&#xF6;ffentlicht" transform="translate(314.000000, 51.000000)">
          <g id="baseline-group-24px" transform="translate(40.000000, 454.000000)">
            <polygon id="Path" points="0 0 24 0 24 24 0 24"/>
            <path
              d="M12 4 20 9 20 20 14.5 20 14.5 15.6636081 14.4907472 15.5222804C14.3565487 14.5088134 12.7959627 14 12 14 11.1678571 14 9.5 14.5561204 9.5 15.6636081L9.5 15.6636081 9.5 20 8 20 8 15.6636081 8.00925278 15.5222804C8.0336525 15.3380137 8.10520553 15.1704297 8.21074276 15.0195535L8.21074276 15.0195535 8.13728 15.0283561 7.98707804 15.0534124C7.16982851 15.2080145 6.11833389 15.6980671 6.00925278 16.5213375L6.00925278 16.5213375 6 16.6625777 6 20 4 20 4 9 12 4ZM15.7892572 15.0195535C15.9211788 15.2081488 16 15.4228499 16 15.6636081L16 15.6636081 16 20 18 20 18 16.6625777 17.9907472 16.5213375C17.8748485 15.6466127 16.6950534 15.1480596 15.86272 15.0283561L15.86272 15.0283561ZM15.7520868 11.5C15.0592654 11.5 14.5 12.0583333 14.5 12.75 14.5 13.4416667 15.0592654 14 15.7520868 14 16.4449082 14 17 13.4416667 17 12.75 17 12.0583333 16.4449082 11.5 15.7520868 11.5ZM8.24791319 11.5C7.55509182 11.5 7 12.0583333 7 12.75 7 13.4416667 7.55509182 14 8.24791319 14 8.94073456 14 9.5 13.4416667 9.5 12.75 9.5 12.0583333 8.94073456 11.5 8.24791319 11.5ZM12.0025042 10C11.1711185 10 10.5 10.67 10.5 11.5 10.5 12.33 11.1711185 13 12.0025042 13 12.8338898 13 13.5 12.33 13.5 11.5 13.5 10.67 12.8338898 10 12.0025042 10Z"
              id="Combined-Shape" fill-rule="nonzero"/>
          </g>
        </g>
      </g>
    </g>
  </symbol>
  <symbol id="Freie-Adresse" viewBox="-6 -6 24 24">
    <defs>
      <linearGradient id="myGradient">
        <stop offset="50%" stop-color="#F27100" />
        <stop offset="50%" stop-color="#000000" />
      </linearGradient>
    </defs>
    <desc>Created with Sketch.</desc>
    <g id="Icons" stroke="none" stroke-width="1" fill="none" fill-rule="evenodd">
      <g id="Datensatz" transform="translate(-359.000000, -591.000000)">
        <g id="Ver&#xF6;ffentlicht" transform="translate(314.000000, 51.000000)">
          <g id="baseline-person-24px-copy" transform="translate(40.000000, 535.000000)">
            <polygon id="Path" points="0 0 24 0 24 24 0 24"/>
            <path
              d="M12 12C13.93375 12 15.5 10.43375 15.5 8.5 15.5 6.56625 13.93375 5 12 5 10.06625 5 8.5 6.56625 8.5 8.5 8.5 10.43375 10.06625 12 12 12ZM12 13.75C9.66375 13.75 5 14.9225 5 17.25L5 19 19 19 19 17.25C19 14.9225 14.33625 13.75 12 13.75Z"
              id="Shape" fill-rule="nonzero"/>
          </g>
        </g>
      </g>
    </g>
  </symbol>
  <symbol id="Institution" viewBox="0 0 16 16">
    <defs>
      <linearGradient id="myGradient">
        <stop offset="50%" stop-color="#F27100" />
        <stop offset="50%" stop-color="#000000" />
      </linearGradient>
    </defs>
    <desc>Created with Sketch.</desc>
    <g id="Icons" stroke="none" stroke-width="1" fill="none" fill-rule="evenodd">
      <g id="Datensatz" transform="translate(-358.000000, -470.000000)">
        <g id="Ver&#xF6;ffentlicht" transform="translate(314.000000, 51.000000)">
          <g id="baseline-location_city-24px" transform="translate(40.000000, 415.000000)">
            <polygon id="Path" points="0 0 24 0 24 24 0 24"/>
            <path
              d="M15 9 15 4 4 4 4 20 20 20 20 9 15 9ZM8 18 6 18 6 16 8 16M8 13 6 13 6 11 8 11M8 8 6 8 6 6 8 6M13 18 11 18 11 16 13 16M13 13 11 13 11 11 13 11M13 8 11 8 11 6 13 6M18 18 16 18 16 16 18 16M18 13 16 13 16 11 18 11 18 13Z"
              id="Shape" fill-rule="nonzero"/>
          </g>
        </g>
      </g>
    </g>
  </symbol>
  <symbol id="Person-einer-Einheit" viewBox="-6 -6 24 24">
    <defs>
      <linearGradient id="myGradient">
        <stop offset="50%" stop-color="#F27100" />
        <stop offset="50%" stop-color="#000000" />
      </linearGradient>
    </defs>
    <desc>Created with Sketch.</desc>
    <g id="Icons" stroke="none" stroke-width="1" fill="none" fill-rule="evenodd">
      <g id="Datensatz" transform="translate(-359.000000, -551.000000)">
        <g id="Ver&#xF6;ffentlicht" transform="translate(314.000000, 51.000000)">
          <g id="baseline-person-24px" transform="translate(40.000000, 495.000000)">
            <polygon id="Path" points="0 0 24 0 24 24 0 24"/>
            <path
              d="M12 5 19 9 19 19 5 19 5 9 12 5ZM12 14C10.665 14 8 14.7052632 8 16.1052632L8 16.1052632 8 19 16 19 16 16.1052632 15.9906573 15.9629143C15.8177883 14.6574629 13.2889655 14 12 14ZM12 9C10.895 9 10 9.895 10 11 10 12.105 10.895 13 12 13 13.105 13 14 12.105 14 11 14 9.895 13.105 9 12 9Z"
              id="Combined-Shape" fill-rule="nonzero"/>
          </g>
        </g>
      </g>
    </g>
  </symbol>
</svg>
