<?xml version="1.0" encoding="UTF-8"?><!DOCTYPE svg PUBLIC"-//W3C//DTD SVG 1.1//EN""http://www.w3.org/Graphics/SVG/1.1/DTD/svg11.dtd"><svg xmlns="http://www.w3.org/2000/svg"><symbol id="arrow_drop_down-24px" viewBox="0 0 24 24"><g fill="none" fill-rule="evenodd"><path d="M0 0h24v24H0z" /><path fill="#000" fill-rule="nonzero" d="M7 10l5 5 5-5z" /></g></symbol><symbol id="baseline-add-24px" viewBox="0 0 24 24"><g fill="none" fill-rule="evenodd"><path d="M0 0h24v24H0z" /><path fill="#000" fill-rule="nonzero" d="M19 13h-6v6h-2v-6H5v-2h6V5h2v6h6z" /></g></symbol><symbol id="baseline-calendar_today-24px" viewBox="0 0 24 24"><g fill="none" fill-rule="evenodd"><path d="M0 0h24v24H0z" /><path d="M20 3h-1V1h-2v2H7V1H5v2H4c-1.1 0-2 .9-2 2v16c0 1.1.9 2 2 2h16c1.1 0 2-.9 2-2V5c0-1.1-.9-2-2-2zm0 18H4V8h16v13z" fill="#000" fill-rule="nonzero" /></g></symbol><symbol id="baseline-check-24px" viewBox="0 0 24 24"><path class="coloring" fill-rule="nonzero" d="M7.627 16.435l-5.69-5.69L0 12.67l7.627 7.627L24 3.924 22.076 2z" /></symbol><symbol id="baseline-clear-24px" viewBox="0 0 24 24"><g fill="none" fill-rule="evenodd"><path d="M0 0h24v24H0z" /><path fill="#000" fill-rule="nonzero" d="M19 6.41L17.59 5 12 10.59 6.41 5 5 6.41 10.59 12 5 17.59 6.41 19 12 13.41 17.59 19 19 17.59 13.41 12z" /></g></symbol><symbol id="chevron_right-24px" viewBox="0 0 24 24"><g fill="none" fill-rule="evenodd"><path d="M0 0h24v24H0z" /><path fill="#000" fill-rule="nonzero" d="M10 6L8.59 7.41 13.17 12l-4.58 4.59L10 18l6-6z" /></g></symbol><symbol id="Entfernen" viewBox="0 0 24 24"><g fill="none" fill-rule="evenodd"><path d="M0 0h24v24H0z" /><path class="coloring" d="M19.071 4.929c-3.903-3.903-10.239-3.903-14.142 0-3.903 3.903-3.903 10.239 0 14.142 3.903 3.903 10.239 3.903 14.142 0 3.903-3.903 3.903-10.239 0-14.142zm-4.243 11.314L12 13.414l-2.828 2.829-1.415-1.415L10.586 12 7.757 9.172l1.415-1.415L12 10.586l2.828-2.829 1.415 1.415L13.414 12l2.829 2.828-1.415 1.415z" fill="#000" fill-rule="nonzero" /></g></symbol><symbol id="Hilfe" viewBox="0 0 24 24"><g fill="none" fill-rule="evenodd"><path d="M0 0h24v24H0z" /><path d="M13 19h-2v-2h2v2zm2.07-7.75l-.9.92C13.45 12.9 13 13.5 13 15h-2v-.5c0-1.1.45-2.1 1.17-2.83l1.24-1.26c.37-.36.59-.86.59-1.41 0-1.1-.9-2-2-2s-2 .9-2 2H8c0-2.21 1.79-4 4-4s4 1.79 4 4c0 .88-.36 1.68-.93 2.25z" fill="#28225B" fill-rule="nonzero" /></g></symbol><symbol id="Info" viewBox="0 0 24 24"><g fill="none" fill-rule="evenodd"><path d="M0 0h24v24H0z" /><path d="M13 11v6h-2v-6h2zm0-4v2h-2V7h2z" fill="#000" /></g></symbol><symbol id="keyboard_arrow_down-24px" viewBox="0 0 24 24"><g fill="none" fill-rule="evenodd"><path d="M0 0h24v24H0z" /><path fill="#000" fill-rule="nonzero" d="M7.41 8.59L12 13.17l4.59-4.58L18 10l-6 6-6-6z" /></g></symbol><symbol id="Liste-default" viewBox="0 0 24 24"><g fill="none" fill-rule="evenodd"><path d="M0 0h24v24H0z" /><path d="M5 15h14v-2H5v2zm0 4h14v-2H5v2zM5 7h14V5H5v2zm0 4h14V9H5v2z" fill="#000" fill-rule="nonzero" /></g></symbol><symbol id="Liste-erweitert" viewBox="0 0 24 24"><g fill="none" fill-rule="evenodd"><path d="M0 0h24v24H0z" /><path d="M5 11h14V5H5v6zm0 8h14v-6H5v6z" fill="#000" fill-rule="nonzero" /></g></symbol><symbol id="Mehr" viewBox="0 0 24 24"><g fill="none" fill-rule="evenodd"><path d="M12 16a1.5 1.5 0 110 3 1.5 1.5 0 010-3zm0-6a1.5 1.5 0 110 3 1.5 1.5 0 010-3zm0-6a1.5 1.5 0 110 3 1.5 1.5 0 010-3z" fill="#000" /></g></symbol><symbol id="Naechster-Fehler" viewBox="0 0 24 24"><g fill="none" fill-rule="evenodd"><path d="M0 24V0h24v24z" /><path fill="#000" fill-rule="nonzero" d="M10 19l7-7-7-7z" /></g></symbol><symbol id="perm_identity-24px" viewBox="0 0 24 24"><g fill="none" fill-rule="evenodd"><path d="M0 0h24v24H0z" /><path d="M12 6c1.1 0 2 .9 2 2s-.9 2-2 2-2-.9-2-2 .9-2 2-2m0 9c2.7 0 5.8 1.29 6 2v1H6v-.99c.2-.72 3.3-2.01 6-2.01m0-11C9.79 4 8 5.79 8 8s1.79 4 4 4 4-1.79 4-4-1.79-4-4-4zm0 9c-2.67 0-8 1.34-8 4v3h16v-3c0-2.66-5.33-4-8-4z" fill="#000" fill-rule="nonzero" /></g></symbol><symbol id="refresh-24px" viewBox="0 0 24 24"><g fill="none" fill-rule="evenodd"><mask id="a" fill="#fff"><path d="M0 0h24v24H0z" /></mask><path d="M17.6 6.4C16.2 4.9 14.2 4 12 4c-4.4 0-8 3.6-8 8s3.6 8 8 8c3.7 0 6.8-2.6 7.7-6h-2.1c-.8 2.3-3 4-5.6 4-3.3 0-6-2.7-6-6s2.7-6 6-6c1.7 0 3.1.7 4.2 1.8L13 11h7V4l-2.4 2.4z" fill="#000" mask="url(#a)" /></g></symbol><symbol id="Schlagwort" viewBox="0 0 25 25"><g fill="none" fill-rule="evenodd"><path d="M0 1h24v24H0z" /><path d="M12.821 6.25c-.424-.424-.97-.637-1.455-.607L5.49 5.99l-.347 5.876c-.03.485.183 1.031.607 1.455l6.965 6.955c.696.695 1.714.815 2.27.26l5.05-5.051c.556-.556.436-1.574-.26-2.27zm-2.735 2.214a1.5 1.5 0 11-2.122 2.122 1.5 1.5 0 012.122-2.122z" fill="#000" fill-rule="nonzero" /></g></symbol><symbol id="Trenner" viewBox="0 0 24 24"><g fill="none" fill-rule="evenodd"><path d="M0 0h24v24H0z" /><path d="M12 6c1.1 0 2-.9 2-2s-.9-2-2-2-2 .9-2 2 .9 2 2 2zm0 3.5c-1.1 0-2 .9-2 2s.9 2 2 2 2-.9 2-2-.9-2-2-2zm0 7.5c-1.1 0-2 .9-2 2s.9 2 2 2 2-.9 2-2-.9-2-2-2z" fill="#000" fill-rule="nonzero" /></g></symbol><symbol id="Vorheriger-Fehler" viewBox="0 0 24 24"><g fill="none" fill-rule="evenodd"><path d="M0 24V0h24v24z" /><path fill="#000" fill-rule="nonzero" d="M14 19l-7-7 7-7z" /></g></symbol><symbol id="warning-24px" viewBox="0 0 24 24"><g fill="none" fill-rule="evenodd"><path d="M0 0h24v24H0z" /><path d="M1 21h22L12 2 1 21zm12-3h-2v-2h2v2zm0-4h-2v-4h2v4z" fill="#000" fill-rule="nonzero" /></g></symbol><symbol id="info-24px" viewBox="0 0 24 24"><g fill="none" fill-rule="evenodd"><path d="M0 0h24v24H0z" /><path fill="#000" d="M11 7h2v2h-2zM11 11h2v6h-2z" /></g></symbol><symbol id="spatial-rect" width="36" height="36" xmlns="http://www.w3.org/2000/svg"><g fill="none" fill-rule="evenodd"><path d="M0 0h36v36H0z" /><path class="coloring" d="M26 19h-7v7h-2v-7h-7v-2h7v-7h2v7h7z" /><path class="coloring-stroke" d="M2 25v6h6m26-6v6h-6m6-20V5h-6M2 11V5h6" /></g></symbol><symbol id="tag" width="24" height="24" xmlns="http://www.w3.org/2000/svg"><path d="M21.41 11.58l-9-9C12.05 2.22 11.55 2 11 2H4c-1.1 0-2 .9-2 2v7c0 .55.22 1.05.59 1.42l9 9c.36.36.86.58 1.41.58.55 0 1.05-.22 1.41-.59l7-7c.37-.36.59-.86.59-1.41 0-.55-.23-1.06-.59-1.42zM13 20.01L4 11V4h7v-.01l9 9-7 7.02z" /><circle cx="7.5" cy="7.5" r="1.5" /></symbol><symbol id="download-doc" width="48" height="48" xmlns="http://www.w3.org/2000/svg"><g fill="none" fill-rule="evenodd"><path d="M0 0h48v48H0z" /><path class="coloring" d="M29 1H10.5C8.025 1 6 3.07 6 5.6v36.8c0 2.53 2.002 4.6 4.477 4.6H37.5c2.475 0 4.5-2.07 4.5-4.6V13L29 1zm9 42H10V5h16v11h12v27z" fill="#000" fill-rule="nonzero" /></g></symbol><symbol id="download-arrow" width="24" height="24" xmlns="http://www.w3.org/2000/svg"><g fill="none" fill-rule="evenodd"><path d="M0 0h24v24H0z" /><path class="coloring" fill-rule="nonzero" d="M13.45 4h-2.9v10H6l6 6 6-6h-4.55z" /></g></symbol><symbol id="download-link" viewBox="0 0 48 48" xmlns="http://www.w3.org/2000/svg"><g fill="none" fill-rule="evenodd"><path d="M0 0h48v48H0z" /><path class="coloring" d="M39.465 8.377c-3.155-3.17-8.338-3.17-11.493 0l-9.916 9.736c-3.155 3.396-3.155 8.378 0 11.774.226.226.676.453.902.679l3.38-3.396c-.225-.227-.676-.453-.901-.68-1.352-1.358-1.352-3.622 0-4.98l9.915-9.963c1.352-1.358 3.606-1.358 4.958 0 1.352 1.359 1.352 3.623 0 4.981l-2.93 2.944c.902 1.811 1.127 3.849.902 5.66l5.183-5.207c3.38-3.17 3.38-8.378 0-11.548z" fill="#000" fill-rule="nonzero" /><path class="coloring" d="M28.873 17.434l-3.38 3.396s.676.453.901.68c1.352 1.358 1.352 3.622 0 4.98l-9.915 9.963c-1.352 1.358-3.606 1.358-4.958 0-1.352-1.359-1.352-3.623 0-4.981l2.93-2.944c-.902-1.811-1.03-3.92-.763-6.026l-5.322 5.573c-3.155 3.17-3.155 8.378 0 11.548s8.338 3.17 11.493 0l9.916-9.963c3.155-3.17 3.155-8.377 0-11.547a6.222 6.222 0 00-.902-.679z" fill="#000" fill-rule="nonzero" /></g></symbol><symbol id="codelist" width="24" height="24" xmlns="http://www.w3.org/2000/svg"><g fill="none" fill-rule="evenodd"><path d="M0 0h24v24H0z" /><path d="M14 4v3H3V4h11zm7 0v3h-4V4h4zM14 10v3H3v-3h11zm7 0v3h-4v-3h4zM14 16v3H3v-3h11zm7 0v3h-4v-3h4z" fill="#000" /></g></symbol><symbol id="meta-admin" width="24" height="24" xmlns="http://www.w3.org/2000/svg"><g fill="none" fill-rule="evenodd"><path d="M24 20.463c0 .744-.684 1.537-1.399 1.537h-10.17C11.714 22 11 21.207 11 20.463l.004-4.95L11 14.75h.004l.003-2.398c0-.697.508-1.275 1.16-1.345L12.3 11h3.9l1.3 1.69h5.2c.715 0 1.3.67 1.3 1.414v.646H11.004v.763l.003.487H24z" fill="#000" fill-rule="nonzero" /><path d="M9 11l.001.088V11.551l.001.116V15.32L9 15.634 9 17H1v-2c0-2.66 5.33-4 8-4zM9 1c2.21 0 4 1.79 4 4s-1.79 4-4 4-4-1.79-4-4 1.79-4 4-4z" fill="#000" /></g></symbol><symbol id="meta-admin-standin" width="24" height="24" xmlns="http://www.w3.org/2000/svg"><g fill="none" fill-rule="evenodd"><path d="M24 20.463c0 .744-.684 1.537-1.399 1.537h-10.17C11.714 22 11 21.207 11 20.463l.004-4.95L11 14.75h.004l.003-2.398c0-.697.508-1.275 1.16-1.345L12.3 11h3.9l1.3 1.69h5.2c.715 0 1.3.67 1.3 1.414v.646H11.004v.763l.003.487H24zM9 3c1.1 0 2 .9 2 2s-.9 2-2 2-2-.9-2-2 .9-2 2-2M6.998 15.5H3v-.99c.151-.545 1.958-1.416 4-1.808L6.998 15.5zM9 1C6.79 1 5 2.79 5 5s1.79 4 4 4 4-1.79 4-4-1.79-4-4-4zM1 14.5v3h8c.002-4.667.002-7 0-7-2.67 0-8 1.34-8 4z" fill="#000" fill-rule="nonzero" /></g></symbol><symbol id="catalog-admin" width="24" height="24" xmlns="http://www.w3.org/2000/svg"><g fill="none" fill-rule="evenodd"><path d="M24 11v13H11V11h13zm-6 9h-4v1h4v-1zm3-3h-7v1h7v-1zm0-3h-7v1h7v-1zM9 11l.001.088V11.551l.001.116V15.32L9 15.634 9 17H1v-2c0-2.66 5.33-4 8-4zM9 1c2.21 0 4 1.79 4 4s-1.79 4-4 4-4-1.79-4-4 1.79-4 4-4z" fill="#000" /></g></symbol><symbol id="catalog-admin-standin" width="24" height="24" xmlns="http://www.w3.org/2000/svg"><g fill="none" fill-rule="evenodd"><path d="M24 11v13H11V11h13zm-6 9h-4v1h4v-1zm3-3h-7v1h7v-1zm0-3h-7v1h7v-1z" fill="#000" /><path d="M9 3c1.1 0 2 .9 2 2s-.9 2-2 2-2-.9-2-2 .9-2 2-2M6.998 15.5H3v-.99c.151-.545 1.958-1.416 4-1.808L6.998 15.5zM9 1C6.79 1 5 2.79 5 5s1.79 4 4 4 4-1.79 4-4-1.79-4-4-4zM1 14.5v3h8c.002-4.667.002-7 0-7-2.67 0-8 1.34-8 4z" fill="#000" fill-rule="nonzero" /></g></symbol><symbol id="author" xmlns="http://www.w3.org/2000/svg" height="24" width="24"><path d="M12 12c2.21 0 4-1.79 4-4s-1.79-4-4-4-4 1.79-4 4 1.79 4 4 4zm0 2c-2.67 0-8 1.34-8 4v2h16v-2c0-2.66-5.33-4-8-4z" /></symbol><symbol id="author-standin" width="24" height="24" xmlns="http://www.w3.org/2000/svg"><g fill="none" fill-rule="evenodd"><path d="M12 12c2.21 0 4-1.79 4-4s-1.79-4-4-4-4 1.79-4 4 1.79 4 4 4zm0-6c1.1 0 2 .9 2 2s-.9 2-2 2-2-.9-2-2 .9-2 2-2zm0 7c-2.336 0-7 1.34-7 4v2h14v-2c0-2.66-4.664-4-7-4zm-5 4c.183-.72 2.758-2 5-2 2.25 0 4.833 1.29 5 2H7z" fill="#000" fill-rule="nonzero" /></g></symbol><symbol id="group" width="24" height="24" xmlns="http://www.w3.org/2000/svg"><g fill="none" fill-rule="evenodd"><path d="M12 12.75c1.63 0 3.07.39 4.24.9 1.08.48 1.76 1.56 1.76 2.73V18H6v-1.61c0-1.18.68-2.26 1.76-2.73 1.17-.52 2.61-.91 4.24-.91zM4 13c1.1 0 2-.9 2-2s-.9-2-2-2-2 .9-2 2 .9 2 2 2zm1.13 1.1c-.37-.06-.74-.1-1.13-.1-.99 0-1.93.21-2.78.58A2.01 2.01 0 000 16.43V18h4.5v-1.61c0-.83.23-1.61.63-2.29zM20 13c1.1 0 2-.9 2-2s-.9-2-2-2-2 .9-2 2 .9 2 2 2zm4 3.43c0-.81-.48-1.53-1.22-1.85A6.95 6.95 0 0020 14c-.39 0-.76.04-1.13.1.4.68.63 1.46.63 2.29V18H24v-1.57zM12 6c1.66 0 3 1.34 3 3s-1.34 3-3 3-3-1.34-3-3 1.34-3 3-3z" fill="#000" fill-rule="nonzero" /></g></symbol><symbol id="group-standin" width="24" height="24" xmlns="http://www.w3.org/2000/svg"><g fill="none" fill-rule="evenodd"><path d="M19.5 14c1.223 0 2.302.29 3.18.686.81.365 1.32 1.188 1.32 2.087V18h-4.5v-1.5h3c-.07-.169-.101-.29-.559-.494l-.136-.058a6.043 6.043 0 00-2.438-.447 2.98 2.98 0 00-.94-1.424A7.52 7.52 0 0119.5 14zm0-5.5c1.383 0 2.5 1.117 2.5 2.5s-1.117 2.5-2.5 2.5A2.497 2.497 0 0117 11c0-1.383 1.117-2.5 2.5-2.5zm0 1.5c-.55 0-1 .45-1 1s.45 1 1 1 1-.45 1-1-.45-1-1-1zM16.24 13.65c-1.17-.52-2.61-.9-4.24-.9-1.63 0-3.07.39-4.24.9A2.988 2.988 0 006 16.39V18h12v-1.61c0-1.18-.68-2.26-1.76-2.74zM8.07 16c.09-.23.13-.39.91-.69a8.25 8.25 0 013.02-.56c1.03 0 2.05.18 3.02.56.77.3.81.46.91.69H8.07zM12 8c.55 0 1 .45 1 1s-.45 1-1 1-1-.45-1-1 .45-1 1-1m0-2c-1.66 0-3 1.34-3 3s1.34 3 3 3 3-1.34 3-3-1.34-3-3-3zM4.5 14c.373 0 .732.027 1.076.075-.448.374-.775.871-.944 1.428L4.5 15.5c-.786 0-1.565.144-2.305.448-.596.24-.626.368-.695.552h3V18H0v-1.227c0-.899.51-1.722 1.32-2.087A7.853 7.853 0 014.5 14zm0-5.5C5.883 8.5 7 9.617 7 11s-1.117 2.5-2.5 2.5A2.497 2.497 0 012 11c0-1.383 1.117-2.5 2.5-2.5zm0 1.5c-.55 0-1 .45-1 1s.45 1 1 1 1-.45 1-1-.45-1-1-1z" fill="#000" fill-rule="nonzero" /></g></symbol><symbol id="edit-lock-folder" width="26" height="24" xmlns="http://www.w3.org/2000/svg"><g fill="none" fill-rule="evenodd"><path d="M3.75 24V12h1.5v4.5H8.5V18H5.25v4.5H14V24H3.75z" fill="#000" /><path d="M7.875 4h-.563V2.857C7.313 1.28 6.053 0 4.5 0 2.947 0 1.687 1.28 1.687 2.857V4h-.562C.506 4 0 4.514 0 5.143v5.714C0 11.486.506 12 1.125 12h6.75C8.494 12 9 11.486 9 10.857V5.143C9 4.514 8.494 4 7.875 4zM2.812 2.857c0-.948.754-1.714 1.688-1.714.934 0 1.688.766 1.688 1.714V4H2.813V2.857zm4.782 7.714H1.406V5.43h6.188v5.142zM10 16.667V20h3.333l9.83-9.83-3.333-3.333-9.83 9.83zm15.74-9.074a.885.885 0 000-1.253l-2.08-2.08a.885.885 0 00-1.253 0l-1.626 1.626 3.333 3.333 1.626-1.626z" fill="#000" fill-rule="nonzero" /></g></symbol><symbol id="upload" xmlns="http://www.w3.org/2000/svg" height="24px" viewBox="0 0 24 24" width="24px" fill="#000000"><path d="M0 0h24v24H0V0z" fill="none" /><path class="coloring" d="M19.35 10.04C18.67 6.59 15.64 4 12 4 9.11 4 6.6 5.64 5.35 8.04 2.34 8.36 0 10.91 0 14c0 3.31 2.69 6 6 6h13c2.76 0 5-2.24 5-5 0-2.64-2.05-4.78-4.65-4.96zM19 18H6c-2.21 0-4-1.79-4-4 0-2.05 1.53-3.76 3.56-3.97l1.07-.11.5-.95C8.08 7.14 9.94 6 12 6c2.62 0 4.88 1.86 5.39 4.43l.3 1.5 1.53.11c1.56.1 2.78 1.41 2.78 2.96 0 1.65-1.35 3-3 3zM8 13h2.55v3h2.9v-3H16l-4-4z" /></symbol></svg>
