<?xml version="1.0" encoding="UTF-8"?><!DOCTYPE svg PUBLIC"-//W3C//DTD SVG 1.1//EN""http://www.w3.org/Graphics/SVG/1.1/DTD/svg11.dtd"><svg xmlns="http://www.w3.org/2000/svg"><symbol id="Aenderungen-anzeigen" viewBox="0 0 24 24"><g fill="none" fill-rule="evenodd"><path d="M0 0h24v24H0z"/><path fill="#000" d="M1 18l3.998-4v3h14.04v-3L23 18l-3.962 4v-3H4.998l.01 3z"/><path class="coloring" d="M3 6h8v2H3V6zm0 4h8v2H3v-2zm0-8h8v2H3V2zm16 2v6h-4V4h4zm2-2h-8v10h8V2z" fill="#000" fill-rule="nonzero"/></g></symbol><symbol id="Aenderungen-verwerfen" viewBox="0 0 24 24"><g fill="#333" fill-rule="nonzero"><path class="coloring" d="M3 15h8v2H3v-2zm0 4h8v2H3v-2zm0-8h8v2H3v-2zm16 2v6h-4v-6h4zm2-2h-8v10h8V11zM7.032 6.542a6.886 6.886 0 019.731 0 6.732 6.732 0 011.703 2.838h2.368a9.095 9.095 0 00-2.449-4.46 9.172 9.172 0 00-12.974 0L2.978 2.487v6.487h6.487L7.032 6.542z"/></g></symbol><symbol id="baseline-help_outline-24px" viewBox="0 0 24 24"><g fill="none" fill-rule="evenodd"><path d="M0 0h24v24H0z"/><path class="coloring" d="M11 18h2v-2h-2v2zm1-16C6.48 2 2 6.48 2 12s4.48 10 10 10 10-4.48 10-10S17.52 2 12 2zm0 18c-4.41 0-8-3.59-8-8s3.59-8 8-8 8 3.59 8 8-3.59 8-8 8zm0-14c-2.21 0-4 1.79-4 4h2c0-1.1.9-2 2-2s2 .9 2 2c0 2-3 1.75-3 5h2c0-2.25 3-2.5 3-5 0-2.21-1.79-4-4-4z" fill="#000" fill-rule="nonzero"/></g></symbol><symbol id="Einfuegen" viewBox="0 0 24 24"><g fill="none" fill-rule="evenodd"><path d="M0 0h24v24H0z"/><path class="coloring" d="M11 16h11v2H11v-2zm0 4h11v2H11v-2zm0-14h11v2H11V6zm0-4h11v2H11V2zM2 11v2h13.01v2L19 12l-3.99-3v2z" fill="#000" fill-rule="nonzero"/></g></symbol><symbol id="ISO-XML-Anzeige" viewBox="0 0 24 24"><g fill="none" fill-rule="evenodd"><path d="M0 0h24v24H0z"/><path class="coloring" d="M13.75 3h-7C5.787 3 5 3.81 5 4.8v14.4c0 .99.779 1.8 1.741 1.8H17.25c.962 0 1.75-.81 1.75-1.8V8.4L13.75 3zm3.5 16.25H6.75V4.75h6.256v4.237h4.244V19.25z" fill="#000" fill-rule="nonzero"/><text font-family="Roboto-Bold, Roboto" font-size="6" font-weight="bold" letter-spacing="-.1" fill="#000"><tspan x="7.36" y="12">ISO</tspan></text></g></symbol><symbol id="Kopieren-Ausschneiden" viewBox="0 0 24 24"><g fill="none" fill-rule="evenodd"><path d="M0 0h24v24H0z"/><path d="M18.875 2L23 6.2v8.4c0 .77-.619 1.4-1.375 1.4h-3.126v-1.5H21.5V7H18V3.5h-4.5l-.001 3h-1.495l.003-3.1c0-.725.542-1.325 1.236-1.394L13.375 2h5.5z" fill="#000" fill-rule="nonzero"/><path class="coloring" d="M12.875 8h-5.5c-.756 0-1.368.63-1.368 1.4L6 20.6c0 .77.612 1.4 1.368 1.4h8.257c.756 0 1.375-.63 1.375-1.4v-8.4L12.875 8zM7.5 20.5v-11H12V13h3.5v7.5h-8z" fill="#000" fill-rule="nonzero"/><path stroke="#000" stroke-width="1.5" d="M6 15H2V4"/></g></symbol><symbol id="language-24px" viewBox="0 0 24 24"><g fill="none" fill-rule="evenodd"><path d="M0 0h24v24H0z"/><path class="coloring" d="M11.99 2C6.47 2 2 6.48 2 12s4.47 10 9.99 10C17.52 22 22 17.52 22 12S17.52 2 11.99 2zm6.93 6h-2.95a15.65 15.65 0 00-1.38-3.56A8.03 8.03 0 0118.92 8zM12 4.04c.83 1.2 1.48 2.53 1.91 3.96h-3.82c.43-1.43 1.08-2.76 1.91-3.96zM4.26 14C4.1 13.36 4 12.69 4 12s.1-1.36.26-2h3.38c-.08.66-.14 1.32-.14 2 0 .68.06 1.34.14 2H4.26zm.82 2h2.95c.32 1.25.78 2.45 1.38 3.56A7.987 7.987 0 015.08 16zm2.95-8H5.08a7.987 7.987 0 014.33-3.56A15.65 15.65 0 008.03 8zM12 19.96c-.83-1.2-1.48-2.53-1.91-3.96h3.82c-.43 1.43-1.08 2.76-1.91 3.96zM14.34 14H9.66c-.09-.66-.16-1.32-.16-2 0-.68.07-1.35.16-2h4.68c.09.65.16 1.32.16 2 0 .68-.07 1.34-.16 2zm.25 5.56c.6-1.11 1.06-2.31 1.38-3.56h2.95a8.03 8.03 0 01-4.33 3.56zM16.36 14c.08-.66.14-1.32.14-2 0-.68-.06-1.34-.14-2h3.38c.16.64.26 1.31.26 2s-.1 1.36-.26 2h-3.38z" fill="#000" fill-rule="nonzero"/></g></symbol><symbol id="Naechster-Datensatz" viewBox="0 0 24 24"><g fill="none" fill-rule="evenodd"><path d="M0 0h24v24H0z"/><path class="coloring" fill-rule="nonzero" d="M7 5v14l11-7z"/></g></symbol><symbol id="Neuer-Datensatz" viewBox="0 0 24 24"><g fill="none" fill-rule="evenodd"><path d="M0 0h24v24H0z"/><path class="coloring" d="M12.875 10.75h-1.75v2.625H8.5v1.75h2.625v2.625h1.75v-2.625H15.5v-1.75h-2.625V10.75zM13.75 3h-7C5.787 3 5 3.81 5 4.8v14.4c0 .99.779 1.8 1.741 1.8H17.25c.962 0 1.75-.81 1.75-1.8V8.4L13.75 3zm3.5 16.25H6.75V4.75h6.256v4.237h4.244V19.25z" fill="#000" fill-rule="nonzero"/></g></symbol><symbol id="outline-create_new_folder-24px" viewBox="0 0 24 24"><g fill="none" fill-rule="evenodd"><path d="M0 0h24v24H0z"/><path class="coloring" d="M20 6h-8l-2-2H4c-1.11 0-1.99.89-1.99 2L2 18c0 1.11.89 2 2 2h16c1.11 0 2-.89 2-2V8c0-1.11-.89-2-2-2zm0 12H4V6h5.17l2 2H20v10zm-8-4h2v2h2v-2h2v-2h-2v-2h-2v2h-2v2z" fill="#000" fill-rule="nonzero"/></g></symbol><symbol id="outline-delete-24px" viewBox="0 0 24 24"><g fill="none" fill-rule="evenodd"><path d="M0 0h24v24H0z"/><path class="coloring" d="M15 9v10H7V9h8zm-1.5-6h-5l-1 1H4v2h14V4h-3.5l-1-1zM17 7H5v12c0 1.1.9 2 2 2h8c1.1 0 2-.9 2-2V7z" fill="#000" fill-rule="nonzero"/></g></symbol><symbol id="outline-save-24px" viewBox="0 0 24 24"><g fill="none" fill-rule="evenodd"><path d="M0 0h24v24H0z"/><path class="coloring" d="M17 3H5a2 2 0 00-2 2v14a2 2 0 002 2h14c1.1 0 2-.9 2-2V7l-4-4zm2 16H5V5h11.17L19 7.83V19zm-7-7c-1.66 0-3 1.34-3 3s1.34 3 3 3 3-1.34 3-3-1.34-3-3-3zM6 6h9v4H6V6z" fill="#000" fill-rule="nonzero"/></g></symbol><symbol id="outline-star_border-24px" viewBox="0 0 24 24"><g fill="none" fill-rule="evenodd"><path d="M0 0h24v24H0z"/><path class="coloring" d="M22 9.24l-7.19-.62L12 2 9.19 8.63 2 9.24l5.46 4.73L5.82 21 12 17.27 18.18 21l-1.63-7.03L22 9.24zM12 15.4l-3.76 2.27 1-4.28-3.32-2.88 4.38-.38L12 6.1l1.71 4.04 4.38.38-3.32 2.88 1 4.28L12 15.4z" fill="#000" fill-rule="nonzero"/></g></symbol><symbol id="outline-undo-24px" viewBox="0 0 24 24"><g fill="none" fill-rule="evenodd"><path d="M0 0h24v24H0z"/><path class="coloring" d="M12.5 8c-2.65 0-5.05.99-6.9 2.6L2 7v9h9l-3.62-3.62c1.39-1.16 3.16-1.88 5.12-1.88 3.54 0 6.55 2.31 7.6 5.5l2.37-.78C21.08 11.03 17.15 8 12.5 8z" fill="#000" fill-rule="nonzero"/></g></symbol><symbol id="Vorheriger-Datensatz" viewBox="0 0 24 24"><g fill="none" fill-rule="evenodd"><path d="M0 0h24v24H0z"/><path class="coloring" fill-rule="nonzero" d="M17 5v14L6 12z"/></g></symbol><symbol id="Vorschau-Druckansicht" viewBox="0 0 24 24"><g fill="none" fill-rule="evenodd"><path d="M0 0h24v24H0z"/><path class="coloring" d="M15.5 15.5v1.75h-7V15.5h7zm0-3.5v1.75h-7V12h7zm-1.75-9h-7C5.787 3 5 3.81 5 4.8v14.4c0 .99.779 1.8 1.741 1.8H17.25c.962 0 1.75-.81 1.75-1.8V8.4L13.75 3zm3.5 16.25H6.75V4.75h6.256v4.237h4.244V19.25z" fill="#000" fill-rule="nonzero"/></g></symbol><symbol id="ISO-Ansicht" viewBox="0 0 24 24"><g fill="none" stroke="#000"><path transform="rotate(179.859 13.346 12.523)" d="M6.195 4.629c0-.572.503-1.053 1.101-1.053H19.41c.598 0 1.101.481 1.101 1.053l.017 1.967-11.379-.004-.011 9.561c-.095.077 7.511.092 11.363.138l.01 4.126c0 .572-.503 1.053-1.101 1.053l-9.399-.043-3.848-3.342.032-13.456z" opacity="NaN" stroke-width="1.7"/><path d="M3.425 9.441c0-.284.228-.522.5-.522h13.066c.272 0 .5.238.5.522v8.439c0 .284-.228.522-.5.522H3.925c-.272 0-.5-.238-.5-.522V9.441z" opacity="NaN" stroke-width="1.5"/></g><path d="M16.381 7.285V3.42l4.194 3.865h-4.194z"/><g stroke="#000" fill="none" stroke-width="1.2"><path d="M5.578 10.892v5.768"/><path d="M10.8 11.365l-3.065.014c-.344.013-.301 2.185 0 2.311h2.577c.258.177.215 2.324 0 2.349H7.22" opacity="NaN"/><rect rx="1" height="5.07" width="3.136" y="11.179" x="12.193"/></g></symbol></svg>
