<?xml version="1.0" encoding="UTF-8"?><!DOCTYPE svg PUBLIC"-//W3C//DTD SVG 1.1//EN""http://www.w3.org/Graphics/SVG/1.1/DTD/svg11.dtd"><svg xmlns="http://www.w3.org/2000/svg"><symbol id="Adressen" viewBox="0 0 24 24"><path class="coloring" d="M23 3a1 1 0 011 1v17h-4v-1.5a1 1 0 00-1-1h-1a1 1 0 00-1 1V21H7v-1.5a1 1 0 00-1-1H5a1 1 0 00-1 1V21H0V4a1 1 0 011-1h22zm-2 11h-6v2h6v-2zM7.5 11.5c-2.485 0-4.5 1.007-4.5 2.25V16h9v-2.25c0-1.243-2.015-2.25-4.5-2.25zM21 10h-6v2h6v-2zM7.5 6a2.5 2.5 0 100 5 2.5 2.5 0 000-5z" fill="#000" fill-rule="evenodd" /></symbol><symbol id="Controlling" viewBox="0 0 24 24"><g fill="none" fill-rule="evenodd"><mask id="a" fill="#fff"><path d="M0 0h24v24H0z" /></mask><path class="coloring" fill="#000" mask="url(#a)" d="M3 13v10h5V13zM10 7v16h5V7zM17 1v22h5V1z" /></g></symbol><symbol id="Daten" viewBox="0 0 24 24"><g fill="none" fill-rule="evenodd"><path d="M0 0h24v24H0z" /><path class="coloring" d="M24 9v10a2 2 0 01-2 2H2a2 2 0 01-2-2V9h24zM9 2a1 1 0 011 1v1h13a1 1 0 011 1v2H0V3a1 1 0 011-1h8z" fill="#000" /></g></symbol><symbol id="Im-Export" viewBox="0 0 24 24"><g fill="none" fill-rule="evenodd"><path d="M-.005 0v24h24V0z" /><path fill="#fff" d="M16.997 3l-6 8H15v10h4V11h3.995z" /><path class="coloring" d="M5 3v10H.995l6.003 8 6.003-8H9V3H5z" fill="#fff" /></g></symbol><symbol id="Nav-auf" viewBox="0 0 24 24"><g fill="none" fill-rule="evenodd"><path d="M0 0h24v24H0z" /><path class="coloring" d="M12 3c4.968 0 9 4.032 9 9s-4.032 9-9 9-9-4.032-9-9 4.032-9 9-9zm-1.573 3L9 7.41 13.636 12 9 16.59 10.427 18l6.073-6-6.073-6z" fill="#000" fill-rule="nonzero" /></g></symbol><symbol id="Nav-zu" viewBox="0 0 24 24"><g fill="none" fill-rule="evenodd"><path d="M0 0h24v24H0z" /><path class="coloring" d="M12 3c4.968 0 9 4.032 9 9s-4.032 9-9 9-9-4.032-9-9 4.032-9 9-9zm1.573 3L7.5 12l6.073 6L15 16.59 10.364 12 15 7.41 13.573 6z" fill="#000" fill-rule="nonzero" /></g></symbol><symbol id="Recherche" viewBox="0 0 24 24"><g fill="none" fill-rule="evenodd"><path d="M0 0h24v24H0z" /><circle class="coloring-stroke" stroke="#fff" stroke-width="3" cx="9" cy="9" r="7.5" /><rect class="coloring" fill="#fff" transform="rotate(45 19.5 19.5)" x="14" y="18" width="11" height="3" rx="1.5" /></g></symbol><symbol id="Statistik" viewBox="0 0 24 24"><g fill="none" fill-rule="evenodd"><path d="M0 0h24v24H0z" /><path d="M22 12c0 5.52-4.48 10-10 10S2 17.52 2 12 6.48 2 12 2v10z" fill="#000" fill-rule="nonzero" /><path class="coloring" d="M13 1c5.52 0 10 4.48 10 10H13z" fill="#000" fill-rule="nonzero" /></g></symbol><symbol id="Uebersicht" viewBox="0 0 24 24"><g fill="none" fill-rule="evenodd"><path d="M0 0h24v24H0z" /><path class="coloring" d="M22 13v8H2v-8h20zM11 3v8H2V3h9zm11 0v8h-9V3h9z" fill="#000" /></g></symbol><symbol id="Benutzer" viewBox="0 0 24 24"><g fill="none" fill-rule="evenodd"><path d="M0 0h24v24H0z" /><path class="coloring" d="M16.5 11c2.496 0 7.5 1.276 7.5 3.818V20h-7v-5.182c0-1.903-1.124-3.097-2.736-3.577.824-.16 1.609-.241 2.236-.241zm.006-2A3.488 3.488 0 0020 5.5C20 3.563 18.446 2 16.506 2A3.498 3.498 0 0013 5.5C13 7.437 14.566 9 16.506 9z" fill="#000" fill-rule="nonzero" /><path class="coloring" d="M7.5 11C5.004 11 0 12.276 0 14.818V20h15v-5.182C15 12.276 9.996 11 7.5 11zm.006-2A3.488 3.488 0 0011 5.5C11 3.563 9.446 2 7.506 2A3.498 3.498 0 004 5.5C4 7.437 5.566 9 7.506 9z" fill="#000" fill-rule="nonzero" /></g></symbol><symbol id="Katalog" viewBox="0 0 24 24"><g fill="none" fill-rule="evenodd"><path d="M0 0h24v24H0z" /><path class="coloring" d="M4 6H2v16h16v-2H4V6zm18-4H6v16h16V2zm-3 9H9V9h10v2zm-4 4H9v-2h6v2zm4-8H9V5h10v2z" fill="#000" fill-rule="nonzero" /></g></symbol><symbol id="Tools" viewBox="0 0 24 24"><g fill="none" fill-rule="evenodd"><path d="M0 0h24v24H0z" /><path class="coloring" d="M20.5 11H19V7c0-1.1-.9-2-2-2h-4V3.5a2.5 2.5 0 00-5 0V5H4c-1.1 0-1.99.9-1.99 2v3.8H3.5c1.49 0 2.7 1.21 2.7 2.7 0 1.49-1.21 2.7-2.7 2.7H2V20c0 1.1.9 2 2 2h3.8v-1.5c0-1.49 1.21-2.7 2.7-2.7 1.49 0 2.7 1.21 2.7 2.7V22H17c1.1 0 2-.9 2-2v-4h1.5a2.5 2.5 0 000-5z" fill="#000" fill-rule="nonzero" /></g></symbol><symbol id="Reports"><g fill="none" fill-rule="evenodd"><path d="M0 0h24v24H0z"/><path class="coloring" d="M21 13c0 5.52-4.48 10-10 10S1 18.52 1 13 5.48 3 11 3v10z" fill="#000" fill-rule="nonzero"/><path class="coloring" d="M13 1c5.52 0 10 4.48 10 10H13z" fill="#000" fill-rule="nonzero"/></g></symbol><symbol id="info_outline" height="24" viewBox="0 -960 960 960" width="24"><path d="M440-280h80v-240h-80v240Zm40-320q17 0 28.5-11.5T520-640q0-17-11.5-28.5T480-680q-17 0-28.5 11.5T440-640q0 17 11.5 28.5T480-600Zm0 520q-83 0-156-31.5T197-197q-54-54-85.5-127T80-480q0-83 31.5-156T197-763q54-54 127-85.5T480-880q83 0 156 31.5T763-763q54 54 85.5 127T880-480q0 83-31.5 156T763-197q-54 54-127 85.5T480-80Zm0-80q134 0 227-93t93-227q0-134-93-227t-227-93q-134 0-227 93t-93 227q0 134 93 227t227 93Zm0-320Z"/></symbol></svg>
