<?xml version="1.0" encoding="UTF-8"?><!DOCTYPE svg PUBLIC "-//W3C//DTD SVG 1.1//EN""http://www.w3.org/Graphics/SVG/1.1/DTD/svg11.dtd"><svg xmlns="http://www.w3.org/2000/svg" xmlns:xlink="http://www.w3.org/1999/xlink"><defs><polygon id="path-1" points="0 0 24 0 24 24 0 24"/></defs><symbol id="Aenderungen-anzeigen" viewBox="0 0 24 24"><title>Path</title><g id="Icons" stroke="none" stroke-width="1" fill="none" fill-rule="evenodd"><g id="Toolbar" transform="translate(-354.000000, -548.000000)"><g id="Symbol" transform="translate(294.000000, 51.000000)"><g id="outline-vertical_split-24px" transform="translate(60.000000, 497.000000)"><polygon id="Path" points="0 0 24 0 24 24 0 24"/><polygon id="Path-2" fill="#000000" points="1 18 4.99840841 14 4.99840841 17 19.0379327 17 19.0379327 14 23 18 19.0379327 22 19.0379327 19 4.99840841 19 5.00842948 22"/><path d="M3 6 11 6 11 8 3 8 3 6ZM3 10 11 10 11 12 3 12 3 10ZM3 2 11 2 11 4 3 4 3 2ZM19 4 19 10 15 10 15 4 19 4 19 4ZM21 2 13 2 13 12 21 12 21 2Z" id="Shape" fill="#000000" fill-rule="nonzero"/></g></g></g></g></symbol><symbol id="Aenderungen-verwerfen" viewBox="0 0 24 24"><title>Path</title><g id="Icons" stroke="none" stroke-width="1" fill="none" fill-rule="evenodd"><g id="Toolbar" transform="translate(-454.000000, -508.000000)"><g id="Enabled" transform="translate(435.000000, 51.000000)"><g id="outline-vertical_split-24px" transform="translate(19.000000, 457.000000)"><mask id="mask-2" fill="white"><use xlink:href="#path-1"/></mask><g id="Path"/><path d="M3 15 11 15 11 17 3 17 3 15ZM3 19 11 19 11 21 3 21 3 19ZM3 11 11 11 11 13 3 13 3 11ZM19 13 19 19 15 19 15 13 19 13 19 13ZM21 11 13 11 13 21 21 21 21 11Z" id="Shape" fill="#333333" fill-rule="nonzero" mask="url(#mask-2)"/><g id="outline-cached-24px" mask="url(#mask-2)" fill="#333333" fill-rule="nonzero"><g transform="translate(-1.000000, -4.000000)" id="Shape"><path d="M8.77075441 13.3461759C8.77075441 9.55030439 11.8556168 6.465442 15.6514884 6.465442 16.8097452 6.465442 17.9106627 6.75213925 18.8624975 7.2681943L20.5368095 5.59388237C19.126259 4.69938696 17.4519471 4.17186402 15.6514884 4.17186402 10.582681 4.17186402 6.47717643 8.27736861 6.47717643 13.3461759L3.03680945 13.3461759 7.62396542 17.9333319 12.2111214 13.3461759 8.77075441 13.3461759Z" transform="translate(11.786809, 11.052598) rotate(45.000000) translate(-11.786809, -11.052598) "/></g></g></g></g></g></g></symbol><symbol id="baseline-help_outline-24px" viewBox="0 0 24 24"><title>Path</title><g id="Icons" stroke="none" stroke-width="1" fill="none" fill-rule="evenodd"><g id="Toolbar" transform="translate(-354.000000, -748.000000)"><g id="Symbol" transform="translate(294.000000, 51.000000)"><g id="baseline-help_outline-24px" transform="translate(60.000000, 697.000000)"><polygon id="Path" points="0 0 24 0 24 24 0 24"/><path d="M11 18 13 18 13 16 11 16 11 18ZM12 2C6.48 2 2 6.48 2 12 2 17.52 6.48 22 12 22 17.52 22 22 17.52 22 12 22 6.48 17.52 2 12 2ZM12 20C7.59 20 4 16.41 4 12 4 7.59 7.59 4 12 4 16.41 4 20 7.59 20 12 20 16.41 16.41 20 12 20ZM12 6C9.79 6 8 7.79 8 10L10 10C10 8.9 10.9 8 12 8 13.1 8 14 8.9 14 10 14 12 11 11.75 11 15L13 15C13 12.75 16 12.5 16 10 16 7.79 14.21 6 12 6Z" id="Shape" fill="#000000" fill-rule="nonzero"/></g></g></g></g></symbol><symbol id="Einfuegen" viewBox="0 0 24 24"><title>Path</title><g id="Icons" stroke="none" stroke-width="1" fill="none" fill-rule="evenodd"><g id="Toolbar" transform="translate(-354.000000, -388.000000)"><g id="Symbol" transform="translate(294.000000, 51.000000)"><g id="outline-vertical_split-24px" transform="translate(60.000000, 337.000000)"><polygon id="Path" points="0 0 24 0 24 24 0 24"/><path d="M11 16 22 16 22 18 11 18 11 16ZM11 20 22 20 22 22 11 22 11 20ZM11 6 22 6 22 8 11 8 11 6ZM11 2 22 2 22 4 11 4 11 2Z" id="Shape" fill="#000000" fill-rule="nonzero"/><polygon id="Path" fill="#000000" fill-rule="nonzero" points="2 11 2 13 15.01 13 15.01 15 19 12 15.01 9 15.01 11"/></g></g></g></g></symbol><symbol id="ISO-XML-Anzeige" viewBox="0 0 24 24"><title>Path</title><g id="Icons" stroke="none" stroke-width="1" fill="none" fill-rule="evenodd"><g id="Toolbar" transform="translate(-354.000000, -228.000000)"><g id="Symbol" transform="translate(294.000000, 51.000000)"><g id="outline-insert_drive_file-24px" transform="translate(60.000000, 177.000000)"><polygon id="Path" points="0 0 24 0 24 24 0 24"/><path d="M13.75 3 6.75 3C5.7875 3 5 3.81 5 4.8L5 19.2C5 20.19 5.77875 21 6.74125 21L17.25 21C18.2125 21 19 20.19 19 19.2L19 8.4 13.75 3ZM17.25 19.25 6.75 19.25 6.75 4.75 13.0064392 4.75 13.0064392 8.98741319 17.25 8.98741319 17.25 19.25Z" id="Shape" fill="#000000" fill-rule="nonzero"/><text id="ISO-Copy" font-family="Roboto-Bold, Roboto" font-size="6" font-weight="bold" line-spacing="16" letter-spacing="-0.1" fill="#000000"><tspan x="7.35996094" y="12">ISO</tspan></text></g></g></g></g></symbol><symbol id="Kopieren-Ausschneiden" viewBox="0 0 24 24"><title>Path Copy</title><g id="Icons" stroke="none" stroke-width="1" fill="none" fill-rule="evenodd"><g id="Toolbar" transform="translate(-354.000000, -308.000000)"><g id="Symbol" transform="translate(294.000000, 51.000000)"><g id="outline-subdirectory_arrow_right-24px" transform="translate(60.000000, 257.000000)"><polygon id="Path-Copy" points="0 0 24 0 24 24 0 24"/><path d="M18.875 2 23 6.2 23 14.6C23 15.37 22.38125 16 21.625 16L21.625 16 18.499 16 18.499 14.5 21.5 14.5 21.5 7 18 7 18 3.5 13.5 3.5 13.499 6.5 12.004 6.5 12.006875 3.4C12.006875 2.67529412 12.5488819 2.07460208 13.243138 2.00644006L13.375 2 18.875 2Z" id="Combined-Shape" fill="#000000" fill-rule="nonzero"/><path d="M12.875 8 7.375 8C6.61875 8 6.006875 8.63 6.006875 9.4L6 20.6C6 21.37 6.611875 22 7.368125 22L15.625 22C16.38125 22 17 21.37 17 20.6L17 12.2 12.875 8ZM7.5 20.5 7.5 9.5 12 9.5 12 13 15.5 13 15.5 20.5 7.5 20.5Z" id="Shape-Copy" fill="#000000" fill-rule="nonzero"/><polyline id="Line-2" stroke="#000000" stroke-width="1.5" points="6 15 2 15 2 4"/></g></g></g></g></symbol><symbol id="language-24px" viewBox="0 0 24 24"><title>Path</title><g id="Icons" stroke="none" stroke-width="1" fill="none" fill-rule="evenodd"><g id="Toolbar" transform="translate(-354.000000, -841.000000)"><g id="Symbol" transform="translate(294.000000, 51.000000)"><g id="FAB-/-Mini-/-Squircle-/-Primary-Color-/-Enabled" transform="translate(60.000000, 790.000000)"><g id="language-24px"><polygon id="Path" points="0 0 24 0 24 24 0 24"/><path d="M11.99 2C6.47 2 2 6.48 2 12 2 17.52 6.47 22 11.99 22 17.52 22 22 17.52 22 12 22 6.48 17.52 2 11.99 2ZM18.92 8 15.97 8C15.65 6.75 15.19 5.55 14.59 4.44 16.43 5.07 17.96 6.35 18.92 8ZM12 4.04C12.83 5.24 13.48 6.57 13.91 8L10.09 8C10.52 6.57 11.17 5.24 12 4.04ZM4.26 14C4.1 13.36 4 12.69 4 12 4 11.31 4.1 10.64 4.26 10L7.64 10C7.56 10.66 7.5 11.32 7.5 12 7.5 12.68 7.56 13.34 7.64 14L4.26 14ZM5.08 16 8.03 16C8.35 17.25 8.81 18.45 9.41 19.56 7.57 18.93 6.04 17.66 5.08 16L5.08 16ZM8.03 8 5.08 8C6.04 6.34 7.57 5.07 9.41 4.44 8.81 5.55 8.35 6.75 8.03 8L8.03 8ZM12 19.96C11.17 18.76 10.52 17.43 10.09 16L13.91 16C13.48 17.43 12.83 18.76 12 19.96ZM14.34 14 9.66 14C9.57 13.34 9.5 12.68 9.5 12 9.5 11.32 9.57 10.65 9.66 10L14.34 10C14.43 10.65 14.5 11.32 14.5 12 14.5 12.68 14.43 13.34 14.34 14ZM14.59 19.56C15.19 18.45 15.65 17.25 15.97 16L18.92 16C17.96 17.65 16.43 18.93 14.59 19.56L14.59 19.56ZM16.36 14C16.44 13.34 16.5 12.68 16.5 12 16.5 11.32 16.44 10.66 16.36 10L19.74 10C19.9 10.64 20 11.31 20 12 20 12.69 19.9 13.36 19.74 14L16.36 14Z" id="Shape" fill="#000000" fill-rule="nonzero"/></g></g></g></g></g></symbol><symbol id="Letzter-Datensatz" viewBox="0 0 11 14"><title>baseline-play_arrow-24px</title><g id="Icons" stroke="none" stroke-width="1" fill="none" fill-rule="evenodd"><g id="Toolbar" transform="translate(-361.000000, -673.000000)"><g id="Symbol" transform="translate(294.000000, 51.000000)"><g id="baseline-play_arrow-24px" transform="translate(60.000000, 617.000000)"><polygon id="Path" points="0 0 24 0 24 24 0 24"/><polygon id="Path" fill="#000000" fill-rule="nonzero" points="7 5 7 19 18 12"/></g></g></g></g></symbol><symbol id="Naechster-Datensatz" viewBox="0 0 24 24"><title>Path</title><g id="Icons" stroke="none" stroke-width="1" fill="none" fill-rule="evenodd"><g id="Toolbar" transform="translate(-354.000000, -668.000000)"><g id="Symbol" transform="translate(294.000000, 51.000000)"><g id="baseline-play_arrow-24px" transform="translate(60.000000, 617.000000)"><polygon id="Path" points="0 0 24 0 24 24 0 24"/><polygon id="Path" fill="#000000" fill-rule="nonzero" points="7 5 7 19 18 12"/></g></g></g></g></symbol><symbol id="Neuer-Datensatz" viewBox="0 0 24 24"><title>Path</title><g id="Icons" stroke="none" stroke-width="1" fill="none" fill-rule="evenodd"><g id="Toolbar" transform="translate(-354.000000, -148.000000)"><g id="Symbol" transform="translate(294.000000, 51.000000)"><g id="outline-note_add-24px-copy" transform="translate(60.000000, 97.000000)"><polygon id="Path" points="0 0 24 0 24 24 0 24"/><path d="M12.875 10.75 11.125 10.75 11.125 13.375 8.5 13.375 8.5 15.125 11.125 15.125 11.125 17.75 12.875 17.75 12.875 15.125 15.5 15.125 15.5 13.375 12.875 13.375 12.875 10.75ZM13.75 3 6.75 3C5.7875 3 5 3.81 5 4.8L5 19.2C5 20.19 5.77875 21 6.74125 21L17.25 21C18.2125 21 19 20.19 19 19.2L19 8.4 13.75 3ZM17.25 19.25 6.75 19.25 6.75 4.75 13.0064392 4.75 13.0064392 8.98741319 17.25 8.98741319 17.25 19.25Z" id="Shape" fill="#000000" fill-rule="nonzero"/></g></g></g></g></symbol><symbol id="outline-create_new_folder-24px" viewBox="0 0 24 24"><title>Path</title><g id="Icons" stroke="none" stroke-width="1" fill="none" fill-rule="evenodd"><g id="Toolbar" transform="translate(-354.000000, -108.000000)"><g id="Symbol" transform="translate(294.000000, 51.000000)"><g id="outline-create_new_folder-24px" transform="translate(60.000000, 57.000000)"><polygon id="Path" points="0 0 24 0 24 24 0 24"/><path d="M20 6 12 6 10 4 4 4C2.89 4 2.01 4.89 2.01 6L2 18C2 19.11 2.89 20 4 20L20 20C21.11 20 22 19.11 22 18L22 8C22 6.89 21.11 6 20 6ZM20 18 4 18 4 6 9.17 6 11.17 8 20 8 20 18ZM12 14 14 14 14 16 16 16 16 14 18 14 18 12 16 12 16 10 14 10 14 12 12 12 12 14Z" id="Shape" fill="#000000" fill-rule="nonzero"/></g></g></g></g></symbol><symbol id="outline-delete-24px" viewBox="0 0 24 24"><title>Path</title><g id="Icons" stroke="none" stroke-width="1" fill="none" fill-rule="evenodd"><g id="Toolbar" transform="translate(-354.000000, -588.000000)"><g id="Symbol" transform="translate(294.000000, 51.000000)"><g id="outline-delete-24px" transform="translate(60.000000, 537.000000)"><polygon id="Path" points="0 0 24 0 24 24 0 24"/><path d="M15 9 15 19 7 19 7 9 15 9 15 9ZM13.5 3 8.5 3 7.5 4 4 4 4 6 18 6 18 4 14.5 4 13.5 3ZM17 7 5 7 5 19C5 20.1 5.9 21 7 21L15 21C16.1 21 17 20.1 17 19L17 7Z" id="Shape" fill="#000000" fill-rule="nonzero"/></g></g></g></g></symbol><symbol id="outline-save-24px" viewBox="0 0 24 24"><title>Path</title><g id="Icons" stroke="none" stroke-width="1" fill="none" fill-rule="evenodd"><g id="Toolbar" transform="translate(-354.000000, -793.000000)"><g id="Symbol" transform="translate(294.000000, 51.000000)"><g id="Buttons-/-Outlined-/-Enabled" transform="translate(60.000000, 742.000000)"><g id="_outline-save-24px"><polygon id="Path" points="0 0 24 0 24 24 0 24"/><path d="M17 3 5 3C3.89 3 3 3.9 3 5L3 19C3 20.1 3.89 21 5 21L19 21C20.1 21 21 20.1 21 19L21 7 17 3ZM19 19 5 19 5 5 16.17 5 19 7.83 19 19ZM12 12C10.34 12 9 13.34 9 15 9 16.66 10.34 18 12 18 13.66 18 15 16.66 15 15 15 13.34 13.66 12 12 12ZM6 6 15 6 15 10 6 10 6 6Z" id="Shape" fill="#000000" fill-rule="nonzero"/></g></g></g></g></g></symbol><symbol id="outline-star_border-24px" viewBox="0 0 24 24"><title>Path</title><g id="Icons" stroke="none" stroke-width="1" fill="none" fill-rule="evenodd"><g id="Toolbar" transform="translate(-354.000000, -708.000000)"><g id="Symbol" transform="translate(294.000000, 51.000000)"><g id="outline-star_border-24px" transform="translate(60.000000, 657.000000)"><polygon id="Path" points="0 0 24 0 24 24 0 24"/><path d="M22 9.24 14.81 8.62 12 2 9.19 8.63 2 9.24 7.46 13.97 5.82 21 12 17.27 18.18 21 16.55 13.97 22 9.24ZM12 15.4 8.24 17.67 9.24 13.39 5.92 10.51 10.3 10.13 12 6.1 13.71 10.14 18.09 10.52 14.77 13.4 15.77 17.68 12 15.4Z" id="Shape" fill="#000000" fill-rule="nonzero"/></g></g></g></g></symbol><symbol id="outline-undo-24px" viewBox="0 0 24 24"><title>Path</title><g id="Icons" stroke="none" stroke-width="1" fill="none" fill-rule="evenodd"><g id="Toolbar" transform="translate(-354.000000, -468.000000)"><g id="Symbol" transform="translate(294.000000, 51.000000)"><g id="outline-undo-24px" transform="translate(60.000000, 417.000000)"><polygon id="Path" points="0 0 24 0 24 24 0 24"/><path d="M12.5 8C9.85 8 7.45 8.99 5.6 10.6L2 7 2 16 11 16 7.38 12.38C8.77 11.22 10.54 10.5 12.5 10.5 16.04 10.5 19.05 12.81 20.1 16L22.47 15.22C21.08 11.03 17.15 8 12.5 8Z" id="Path" fill="#000000" fill-rule="nonzero"/></g></g></g></g></symbol><symbol id="Vorheriger-Datensatz" viewBox="0 0 24 24"><title>Path</title><g id="Icons" stroke="none" stroke-width="1" fill="none" fill-rule="evenodd"><g id="Toolbar" transform="translate(-354.000000, -628.000000)"><g id="Symbol" transform="translate(294.000000, 51.000000)"><g id="baseline-play_arrow-24px" transform="translate(60.000000, 577.000000)"><polygon id="Path" points="0 0 24 0 24 24 0 24"/><polygon id="Path" fill="#000000" fill-rule="nonzero" transform="translate(11.500000, 12.000000) scale(-1, 1) translate(-11.500000, -12.000000) " points="6 5 6 19 17 12"/></g></g></g></g></symbol><symbol id="Vorschau-Druckansicht" viewBox="0 0 24 24"><title>Path</title><g id="Icons" stroke="none" stroke-width="1" fill="none" fill-rule="evenodd"><g id="Toolbar" transform="translate(-354.000000, -188.000000)"><g id="Symbol" transform="translate(294.000000, 51.000000)"><g id="outline-description-24px" transform="translate(60.000000, 137.000000)"><polygon id="Path" points="0 0 24 0 24 24 0 24"/><path d="M15.5 15.5 15.5 17.25 8.5 17.25 8.5 15.5 15.5 15.5ZM15.5 12 15.5 13.75 8.5 13.75 8.5 12 15.5 12ZM13.75 3 6.75 3C5.7875 3 5 3.81 5 4.8L5 19.2C5 20.19 5.77875 21 6.74125 21L17.25 21C18.2125 21 19 20.19 19 19.2L19 8.4 13.75 3ZM17.25 19.25 6.75 19.25 6.75 4.75 13.0064392 4.75 13.0064392 8.98741319 17.25 8.98741319 17.25 19.25Z" id="Shape" fill="#000000" fill-rule="nonzero"/></g></g></g></g></symbol></svg>
