<?xml version="1.0" encoding="UTF-8"?><!DOCTYPE svg PUBLIC"-//W3C//DTD SVG 1.1//EN""http://www.w3.org/Graphics/SVG/1.1/DTD/svg11.dtd"><svg xmlns="http://www.w3.org/2000/svg"><symbol id="baseline-filter_list-24px" viewBox="0 0 24 24"><g fill="none" fill-rule="evenodd"><path d="M10 18h4v-2h-4v2zM3 6v2h18V6H3zm3 7h12v-2H6v2z" fill="#000" fill-rule="nonzero" /><path d="M0 0h24v24H0z" /></g></symbol><symbol id="baseline-import_export-24px" viewBox="0 0 24 24"><g fill="none" fill-rule="evenodd"><path d="M9 3L5 6.99h3V14h2V6.99h3L9 3zm7 14.01V10h-2v7.01h-3L15 21l4-3.99h-3z" fill="#000" fill-rule="nonzero" /><path d="M0 0h24v24H0z" /></g></symbol><symbol id="Exportieren" viewBox="0 0 24 24"><g fill="none" fill-rule="evenodd"><mask id="a" fill="#fff"><path d="M0 0h24v24H0z" /></mask><path fill="#000" mask="url(#a)" d="M11 7h2v10h-2z" /><path fill="#000" mask="url(#a)" d="M12.002 5L17 10H7zM4 19h16v2H4z" /></g></symbol><symbol id="Infolayer-gross" viewBox="0 0 24 24"><g fill="none" fill-rule="evenodd"><path d="M0 0h24v24H0V0zm24 24H0V0h24v24z" /><path d="M21 15h-2v2h2v-2zm0-4h-2v2h2v-2zm0 8h-2v2c1 0 2-1 2-2zM17 3h-2v2h2V3zm4 4h-2v2h2V7zm-2-4v2h2c0-1-1-2-2-2zM5 21h8v-6H3v4c0 1.1.9 2 2 2zM5 7H3v2h2V7zm12 12h-2v2h2v-2zM5 3C4 3 3 4 3 5h2V3zm0 8H3v2h2v-2zm8-8h-2v2h2V3zM9 3H7v2h2V3z" fill="#000" fill-rule="nonzero" /></g></symbol><symbol id="outline-person_add-24px" viewBox="0 0 24 24"><g fill="none" fill-rule="evenodd"><path d="M0 0h24v24H0z" /><path class="coloring" d="M15 11c2.21 0 4-1.79 4-4s-1.79-4-4-4-4 1.79-4 4 1.79 4 4 4zm0-6c1.1 0 2 .9 2 2s-.9 2-2 2-2-.9-2-2 .9-2 2-2zm0 8c-2.67 0-8 1.34-8 4v2h16v-2c0-2.66-5.33-4-8-4zm-6 4c.22-.72 3.31-2 6-2 2.7 0 5.8 1.29 6 2H9zm-3-3v-3h3V9H6V6H4v3H1v2h3v3h2z" fill="#000" fill-rule="nonzero" /></g></symbol><symbol id="outline-playlist_add-24px" viewBox="0 0 24 24"><g fill="none" fill-rule="evenodd"><polygon points="0 0 24 0 24 24 0 24" /><path d="M14 10 2 10 2 12 14 12 14 10ZM14 6 2 6 2 8 14 8 14 6ZM18 14 18 10 16 10 16 14 12 14 12 16 16 16 16 20 18 20 18 16 22 16 22 14 18 14ZM2 16 10 16 10 14 2 14 2 16Z" id="Shape" fill="#000000" fill-rule="nonzero" /></g></symbol><symbol id="search-24px" viewBox="0 0 24 24"><g fill="none" fill-rule="evenodd"><path d="M0 0h24v24H0z" /><g><mask id="a" fill="#fff"><path d="M0 0h24v24H0z" /></mask><g mask="url(#a)" fill="#000" fill-opacity=".87"><path d="M0 0h24v24H0z" /></g></g></g></symbol><symbol id="Segment-kuerzen" viewBox="0 0 24 24"><g fill="none" fill-rule="evenodd"><path d="M0 0h24v24H0z" /><path fill="#000" fill-rule="nonzero" d="M12 10l-4 4.005h3V20h2v-5.995h3zM10.001 8.999L8 11H3V9l7.001-.001zM21 9v2h-5l-2.001-2.001L21 9zM21 5H3v2h18z" /></g></symbol><svg id="cursor-edit" viewBox="0 0 24 24" xmlns="http://www.w3.org/2000/svg"><g fill="none" fill-rule="evenodd"><path class="coloring" d="M2 17.831v4.166h4.166L18.453 9.71l-4.166-4.166L2 17.831zM21.675 6.49a1.106 1.106 0 000-1.567l-2.6-2.6a1.106 1.106 0 00-1.566 0l-2.033 2.034 4.166 4.166 2.033-2.033z" fill="#000" fill-rule="nonzero" /><path d="M0 0h24v24H0z" /></g></svg><symbol id="baseline-settings-24px" width="24" height="24" xmlns="http://www.w3.org/2000/svg"><g fill="none" fill-rule="evenodd"><path d="M0 0h24v24H0z" /><path d="M17.355 12.682c.027-.218.045-.446.045-.682 0-.236-.018-.464-.054-.682l1.521-1.155a.355.355 0 00.09-.447l-1.44-2.423c-.09-.158-.279-.21-.44-.158l-1.792.7a5.312 5.312 0 00-1.215-.683l-.27-1.854A.356.356 0 0013.44 5h-2.88a.347.347 0 00-.351.298l-.27 1.854a5.454 5.454 0 00-1.215.683l-1.791-.7a.36.36 0 00-.441.158l-1.44 2.423a.333.333 0 00.09.447l1.52 1.155A4.279 4.279 0 006.6 12c0 .227.018.464.054.682l-1.521 1.155a.355.355 0 00-.09.447l1.44 2.423c.09.158.279.21.44.158l1.792-.7c.378.28.774.508 1.215.683l.27 1.855c.036.175.18.297.36.297h2.88c.18 0 .333-.122.351-.297l.27-1.855a5.454 5.454 0 001.215-.683l1.791.7a.36.36 0 00.441-.157l1.44-2.424a.333.333 0 00-.09-.447l-1.503-1.155h0zM12 14.625c-1.485 0-2.7-1.181-2.7-2.625s1.215-2.625 2.7-2.625 2.7 1.181 2.7 2.625-1.215 2.625-2.7 2.625z" stroke="#000" stroke-width="1.5" /></g></symbol><symbol id="german_flag-24px" width="24px" height="24px" xmlns="http://www.w3.org/2000/svg" xmlns:xlink="http://www.w3.org/1999/xlink"><defs><circle id="p" cx="7.5" cy="7.5" r="7.5"></circle></defs><g stroke="none" stroke-width="1" fill="none" fill-rule="evenodd"><g transform="translate(-1201.000000, -197.000000)"><g transform="translate(1178.000000, 52.000000)"><g transform="translate(23.000000, 145.000000)"><polygon points="0 0 24 0 24 24 0 24"></polygon><g id="Flagge" transform="translate(4.500000, 4.500000)"><mask id="m" fill="white"><use xlink:href="#p"></use></mask><use fill="#D8D8D8" xlink:href="#p"></use><rect fill="#F9AF00" mask="url(#m)" x="-1" y="10" width="16" height="5"></rect><rect fill="#D80202" mask="url(#m)" x="-1" y="5" width="16" height="5"></rect><rect fill="#000000" mask="url(#m)" x="-1" y="0" width="16" height="5"></rect></g></g></g></g></g></symbol><symbol id="edit_mode" width="24" height="24" xmlns="http://www.w3.org/2000/svg"><g fill="none" fill-rule="evenodd"><path d="M0 0h24v24H0z" /><path d="M16 12v6.5a1 1 0 01-1 1H4a1 1 0 01-1-1v-11a1 1 0 011-1h7.5" stroke="#000" /><path class="coloring" d="M8 12.084L7 16l3.916-1 8.601-8.601-2.916-2.916L8 12.083zm13.773-7.94a.774.774 0 000-1.097l-1.82-1.82a.774.774 0 00-1.097 0l-1.423 1.424 2.916 2.916 1.424-1.423z" fill="#000" fill-rule="nonzero" /></g></symbol><symbol id="visibility" viewBox="0 0 48 48" xmlns="http://www.w3.org/2000/svg"><path d="M24 31.5q3.55 0 6.025-2.475Q32.5 26.55 32.5 23q0-3.55-2.475-6.025Q27.55 14.5 24 14.5q-3.55 0-6.025 2.475Q15.5 19.45 15.5 23q0 3.55 2.475 6.025Q20.45 31.5 24 31.5Zm0-2.9q-2.35 0-3.975-1.625T18.4 23q0-2.35 1.625-3.975T24 17.4q2.35 0 3.975 1.625T29.6 23q0 2.35-1.625 3.975T24 28.6Zm0 9.4q-7.3 0-13.2-4.15Q4.9 29.7 2 23q2.9-6.7 8.8-10.85Q16.7 8 24 8q7.3 0 13.2 4.15Q43.1 16.3 46 23q-2.9 6.7-8.8 10.85Q31.3 38 24 38Zm0-15Zm0 12q6.05 0 11.125-3.275T42.85 23q-2.65-5.45-7.725-8.725Q30.05 11 24 11t-11.125 3.275Q7.8 17.55 5.1 23q2.7 5.45 7.775 8.725Q17.95 35 24 35Z" /></symbol></svg>
