<?xml version="1.0" encoding="UTF-8"?><!DOCTYPE svg PUBLIC"-//W3C//DTD SVG 1.1//EN""http://www.w3.org/Graphics/SVG/1.1/DTD/svg11.dtd"><svg xmlns="http://www.w3.org/2000/svg"><symbol id="arrow_drop_down-24px" viewBox="0 0 24 24"><g fill="none" fill-rule="evenodd"><path d="M0 0h24v24H0z"/><path fill="#000" fill-rule="nonzero" d="M7 10l5 5 5-5z"/></g></symbol><symbol id="baseline-add-24px" viewBox="0 0 24 24"><g fill="none" fill-rule="evenodd"><path d="M0 0h24v24H0z"/><path fill="#000" fill-rule="nonzero" d="M19 13h-6v6h-2v-6H5v-2h6V5h2v6h6z"/></g></symbol><symbol id="baseline-calendar_today-24px" viewBox="0 0 24 24"><g fill="none" fill-rule="evenodd"><path d="M0 0h24v24H0z"/><path d="M20 3h-1V1h-2v2H7V1H5v2H4c-1.1 0-2 .9-2 2v16c0 1.1.9 2 2 2h16c1.1 0 2-.9 2-2V5c0-1.1-.9-2-2-2zm0 18H4V8h16v13z" fill="#000" fill-rule="nonzero"/></g></symbol><symbol id="baseline-check-24px" viewBox="0 0 24 24"><path class="coloring" fill-rule="nonzero" d="M7.627 16.435l-5.69-5.69L0 12.67l7.627 7.627L24 3.924 22.076 2z"/></symbol><symbol id="baseline-clear-24px" viewBox="0 0 24 24"><g fill="none" fill-rule="evenodd"><path d="M0 0h24v24H0z"/><path fill="#000" fill-rule="nonzero" d="M19 6.41L17.59 5 12 10.59 6.41 5 5 6.41 10.59 12 5 17.59 6.41 19 12 13.41 17.59 19 19 17.59 13.41 12z"/></g></symbol><symbol id="chevron_right-24px" viewBox="0 0 24 24"><g fill="none" fill-rule="evenodd"><path d="M0 0h24v24H0z"/><path fill="#000" fill-rule="nonzero" d="M10 6L8.59 7.41 13.17 12l-4.58 4.59L10 18l6-6z"/></g></symbol><symbol id="Entfernen" viewBox="0 0 24 24"><g fill="none" fill-rule="evenodd"><path d="M0 0h24v24H0z"/><path class="coloring" d="M19.071 4.929c-3.903-3.903-10.239-3.903-14.142 0-3.903 3.903-3.903 10.239 0 14.142 3.903 3.903 10.239 3.903 14.142 0 3.903-3.903 3.903-10.239 0-14.142zm-4.243 11.314L12 13.414l-2.828 2.829-1.415-1.415L10.586 12 7.757 9.172l1.415-1.415L12 10.586l2.828-2.829 1.415 1.415L13.414 12l2.829 2.828-1.415 1.415z" fill="#000" fill-rule="nonzero"/></g></symbol><symbol id="Hilfe" viewBox="0 0 24 24"><g fill="none" fill-rule="evenodd"><path d="M0 0h24v24H0z"/><path d="M13 19h-2v-2h2v2zm2.07-7.75l-.9.92C13.45 12.9 13 13.5 13 15h-2v-.5c0-1.1.45-2.1 1.17-2.83l1.24-1.26c.37-.36.59-.86.59-1.41 0-1.1-.9-2-2-2s-2 .9-2 2H8c0-2.21 1.79-4 4-4s4 1.79 4 4c0 .88-.36 1.68-.93 2.25z" fill="#28225B" fill-rule="nonzero"/></g></symbol><symbol id="Info" viewBox="0 0 24 24"><g fill="none" fill-rule="evenodd"><path d="M0 0h24v24H0z"/><path d="M13 11v6h-2v-6h2zm0-4v2h-2V7h2z" fill="#000"/></g></symbol><symbol id="keyboard_arrow_down-24px" viewBox="0 0 24 24"><g fill="none" fill-rule="evenodd"><path d="M0 0h24v24H0z"/><path fill="#000" fill-rule="nonzero" d="M7.41 8.59L12 13.17l4.59-4.58L18 10l-6 6-6-6z"/></g></symbol><symbol id="Liste-default" viewBox="0 0 24 24"><g fill="none" fill-rule="evenodd"><path d="M0 0h24v24H0z"/><path d="M5 15h14v-2H5v2zm0 4h14v-2H5v2zM5 7h14V5H5v2zm0 4h14V9H5v2z" fill="#000" fill-rule="nonzero"/></g></symbol><symbol id="Liste-erweitert" viewBox="0 0 24 24"><g fill="none" fill-rule="evenodd"><path d="M0 0h24v24H0z"/><path d="M5 11h14V5H5v6zm0 8h14v-6H5v6z" fill="#000" fill-rule="nonzero"/></g></symbol><symbol id="Mehr" viewBox="0 0 24 24"><g fill="none" fill-rule="evenodd"><path d="M12 16a1.5 1.5 0 110 3 1.5 1.5 0 010-3zm0-6a1.5 1.5 0 110 3 1.5 1.5 0 010-3zm0-6a1.5 1.5 0 110 3 1.5 1.5 0 010-3z" fill="#000"/></g></symbol><symbol id="Naechster-Fehler" viewBox="0 0 24 24"><g fill="none" fill-rule="evenodd"><path d="M0 24V0h24v24z"/><path fill="#000" fill-rule="nonzero" d="M10 19l7-7-7-7z"/></g></symbol><symbol id="perm_identity-24px" viewBox="0 0 24 24"><g fill="none" fill-rule="evenodd"><path d="M0 0h24v24H0z"/><path d="M12 6c1.1 0 2 .9 2 2s-.9 2-2 2-2-.9-2-2 .9-2 2-2m0 9c2.7 0 5.8 1.29 6 2v1H6v-.99c.2-.72 3.3-2.01 6-2.01m0-11C9.79 4 8 5.79 8 8s1.79 4 4 4 4-1.79 4-4-1.79-4-4-4zm0 9c-2.67 0-8 1.34-8 4v3h16v-3c0-2.66-5.33-4-8-4z" fill="#000" fill-rule="nonzero"/></g></symbol><symbol id="refresh-24px" viewBox="0 0 24 24"><g fill="none" fill-rule="evenodd"><mask id="a" fill="#fff"><path d="M0 0h24v24H0z"/></mask><path d="M17.6 6.4C16.2 4.9 14.2 4 12 4c-4.4 0-8 3.6-8 8s3.6 8 8 8c3.7 0 6.8-2.6 7.7-6h-2.1c-.8 2.3-3 4-5.6 4-3.3 0-6-2.7-6-6s2.7-6 6-6c1.7 0 3.1.7 4.2 1.8L13 11h7V4l-2.4 2.4z" fill="#000" mask="url(#a)"/></g></symbol><symbol id="Schlagwort" viewBox="0 0 25 25"><g fill="none" fill-rule="evenodd"><path d="M0 1h24v24H0z"/><path d="M12.821 6.25c-.424-.424-.97-.637-1.455-.607L5.49 5.99l-.347 5.876c-.03.485.183 1.031.607 1.455l6.965 6.955c.696.695 1.714.815 2.27.26l5.05-5.051c.556-.556.436-1.574-.26-2.27zm-2.735 2.214a1.5 1.5 0 11-2.122 2.122 1.5 1.5 0 012.122-2.122z" fill="#000" fill-rule="nonzero"/></g></symbol><symbol id="Trenner" viewBox="0 0 24 24"><g fill="none" fill-rule="evenodd"><path d="M0 0h24v24H0z"/><path d="M12 6c1.1 0 2-.9 2-2s-.9-2-2-2-2 .9-2 2 .9 2 2 2zm0 3.5c-1.1 0-2 .9-2 2s.9 2 2 2 2-.9 2-2-.9-2-2-2zm0 7.5c-1.1 0-2 .9-2 2s.9 2 2 2 2-.9 2-2-.9-2-2-2z" fill="#000" fill-rule="nonzero"/></g></symbol><symbol id="Vorheriger-Fehler" viewBox="0 0 24 24"><g fill="none" fill-rule="evenodd"><path d="M0 24V0h24v24z"/><path fill="#000" fill-rule="nonzero" d="M14 19l-7-7 7-7z"/></g></symbol><symbol id="warning-24px" viewBox="0 0 24 24"><g fill="none" fill-rule="evenodd"><path d="M0 0h24v24H0z"/><path d="M1 21h22L12 2 1 21zm12-3h-2v-2h2v2zm0-4h-2v-4h2v4z" fill="#000" fill-rule="nonzero"/></g></symbol><symbol id="info-24px" viewBox="0 0 24 24"><g fill="none" fill-rule="evenodd"><path d="M0 0h24v24H0z"/><path fill="#000" d="M11 7h2v2h-2zM11 11h2v6h-2z"/></g></symbol><symbol id="spatial-rect" width="36" height="36" xmlns="http://www.w3.org/2000/svg"><g fill="none" fill-rule="evenodd"><path d="M0 0h36v36H0z"/><path class="coloring" d="M26 19h-7v7h-2v-7h-7v-2h7v-7h2v7h7z"/><path class="coloring-stroke" d="M2 25v6h6m26-6v6h-6m6-20V5h-6M2 11V5h6"/></g></symbol><symbol id="tag" width="24" height="24" xmlns="http://www.w3.org/2000/svg"><path d="M21.41 11.58l-9-9C12.05 2.22 11.55 2 11 2H4c-1.1 0-2 .9-2 2v7c0 .55.22 1.05.59 1.42l9 9c.36.36.86.58 1.41.58.55 0 1.05-.22 1.41-.59l7-7c.37-.36.59-.86.59-1.41 0-.55-.23-1.06-.59-1.42zM13 20.01L4 11V4h7v-.01l9 9-7 7.02z"/><circle cx="7.5" cy="7.5" r="1.5"/></symbol><symbol id="download-doc" width="48" height="48" xmlns="http://www.w3.org/2000/svg"><g fill="none" fill-rule="evenodd"><path d="M0 0h48v48H0z"/><path class="coloring" d="M29 1H10.5C8.025 1 6 3.07 6 5.6v36.8c0 2.53 2.002 4.6 4.477 4.6H37.5c2.475 0 4.5-2.07 4.5-4.6V13L29 1zm9 42H10V5h16v11h12v27z" fill="#000" fill-rule="nonzero"/></g></symbol><symbol id="download-arrow" width="24" height="24" xmlns="http://www.w3.org/2000/svg"><g fill="none" fill-rule="evenodd"><path d="M0 0h24v24H0z"/><path class="coloring" fill-rule="nonzero" d="M13.45 4h-2.9v10H6l6 6 6-6h-4.55z"/></g></symbol><symbol id="download-link" width="48" height="48" xmlns="http://www.w3.org/2000/svg"><g fill="none" fill-rule="evenodd"><path d="M0 0h48v48H0z"/><path class="coloring" d="M39.465 8.377c-3.155-3.17-8.338-3.17-11.493 0l-9.916 9.736c-3.155 3.396-3.155 8.378 0 11.774.226.226.676.453.902.679l3.38-3.396c-.225-.227-.676-.453-.901-.68-1.352-1.358-1.352-3.622 0-4.98l9.915-9.963c1.352-1.358 3.606-1.358 4.958 0 1.352 1.359 1.352 3.623 0 4.981l-2.93 2.944c.902 1.811 1.127 3.849.902 5.66l5.183-5.207c3.38-3.17 3.38-8.378 0-11.548z" fill="#000" fill-rule="nonzero"/><path class="coloring" d="M28.873 17.434l-3.38 3.396s.676.453.901.68c1.352 1.358 1.352 3.622 0 4.98l-9.915 9.963c-1.352 1.358-3.606 1.358-4.958 0-1.352-1.359-1.352-3.623 0-4.981l2.93-2.944c-.902-1.811-1.03-3.92-.763-6.026l-5.322 5.573c-3.155 3.17-3.155 8.378 0 11.548s8.338 3.17 11.493 0l9.916-9.963c3.155-3.17 3.155-8.377 0-11.547a6.222 6.222 0 00-.902-.679z" fill="#000" fill-rule="nonzero"/></g></symbol><symbol id="codelist" width="24" height="24" xmlns="http://www.w3.org/2000/svg"><g fill="none" fill-rule="evenodd"><path d="M0 0h24v24H0z"/><path d="M14 4v3H3V4h11zm7 0v3h-4V4h4zM14 10v3H3v-3h11zm7 0v3h-4v-3h4zM14 16v3H3v-3h11zm7 0v3h-4v-3h4z" fill="#000"/></g></symbol></svg>
