<?xml version="1.0" encoding="UTF-8"?><!DOCTYPE svg PUBLIC "-//W3C//DTD SVG 1.1//EN""http://www.w3.org/Graphics/SVG/1.1/DTD/svg11.dtd"><svg xmlns="http://www.w3.org/2000/svg" xmlns:xlink="http://www.w3.org/1999/xlink"><defs><rect id="path-1" x="0" y="0" width="24" height="24"/></defs><symbol id="Adressen" viewBox="0 0 24 24"><title>Path</title><desc>Created with Sketch.</desc><g id="Icons" stroke="none" stroke-width="1" fill="none" fill-rule="evenodd"><g id="Hauptmen&#xFC;" transform="translate(-350.000000, -219.000000)"><g id="Symbol" transform="translate(334.000000, 51.000000)"><g id="Icon-Adresse" transform="translate(16.000000, 168.000000)"><polygon id="Path" points="0 0 24 0 24 24 0 24"/><path d="M16.5 11C18.9964286 11 24 12.2763636 24 14.8181818L24 14.8181818 24 20.0001395 17 20.0001395 17 14.8181818C17 12.9146819 15.8763745 11.7208632 14.2635882 11.2413073 15.0875142 11.0805482 15.8728669 11 16.5 11ZM16.5058431 9C18.4457429 9 20 7.43666667 20 5.5 20 3.56333333 18.4457429 2 16.5058431 2 14.5659432 2 13 3.56333333 13 5.5 13 7.43666667 14.5659432 9 16.5058431 9Z" id="Shape-Copy-2" fill="#000000" fill-rule="nonzero"/><path d="M7.5 11C5.00357143 11-9.37916411e-13 12.2763636-9.37916411e-13 14.8181818L-9.37916411e-13 20.0001395 15 20.0001395 15 14.8181818C15 12.2763636 9.99642857 11 7.5 11ZM7.50584307 9C9.4457429 9 11 7.43666667 11 5.5 11 3.56333333 9.4457429 2 7.50584307 2 5.56594324 2 4 3.56333333 4 5.5 4 7.43666667 5.56594324 9 7.50584307 9Z" id="Shape" fill="#000000" fill-rule="nonzero"/></g></g></g></g></symbol><symbol id="Controlling" viewBox="0 0 24 24"><title>Rectangle</title><desc>Created with Sketch.</desc><g id="Icons" stroke="none" stroke-width="1" fill="none" fill-rule="evenodd"><g id="Hauptmen&#xFC;" transform="translate(-350.000000, -331.000000)"><g id="Symbol" transform="translate(334.000000, 51.000000)"><g id="Icon-Controlling" transform="translate(16.000000, 280.000000)"><mask id="mask-2" fill="white"><use xlink:href="#path-1"/></mask><g id="Rectangle"/><polygon id="Path-8" fill="#000000" mask="url(#mask-2)" points="3 13 3 23 8 23 8 13"/><polygon id="Path-8-Copy" fill="#000000" mask="url(#mask-2)" points="10 7 10 23 15 23 15 7"/><polygon id="Path-8-Copy-2" fill="#000000" mask="url(#mask-2)" points="17 1 17 23 22 23 22 1"/></g></g></g></g></symbol><symbol id="Daten" viewBox="0 0 24 24"><title>Path Copy</title><desc>Created with Sketch.</desc><g id="Icons" stroke="none" stroke-width="1" fill="none" fill-rule="evenodd"><g id="Hauptmen&#xFC;" transform="translate(-350.000000, -163.000000)"><g id="Symbol" transform="translate(334.000000, 51.000000)"><g id="Icon-Daten" transform="translate(16.000000, 112.000000)"><polygon id="Path-Copy" points="0 0 24 0 24 24 0 24"/><path d="M24 9 24 19C24 20.1045695 23.1045695 21 22 21L22 21 2 21C.8954305 21 1.3527075e-16 20.1045695 0 19L0 19 0 9 24 9ZM9 2C9.55228475 2 10 2.44771525 10 3L10 4 23 4C23.5522847 4 24 4.44771525 24 5L24 7 0 7 0 3C-6.76353751e-17 2.44771525.44771525 2 1 2L9 2Z" id="Combined-Shape" fill="#000000"/></g></g></g></g></symbol><symbol id="Im-Export" viewBox="0 0 24 24"><title>Path 11</title><desc>Created with Sketch.</desc><g id="Icons" stroke="none" stroke-width="1" fill="none" fill-rule="evenodd"><g id="Hauptmen&#xFC;" transform="translate(-350.000000, -443.000000)"><g id="Symbol" transform="translate(334.000000, 51.000000)"><g id="Icon-Im-/Export" transform="translate(15.995361, 392.000000)"><polygon id="Path-11" points="0 0 0 24 24 24 24 0"/><polygon id="Path-12" fill="#000000" points="17.0011597 3 11.0025635 11 15.0046387 11 15.0046387 21 19.0046387 21 19.0046387 11 22.9997559 11"/><path d="M5.00463867 3 5.00463867 13C2.33487956 13 1 13 1 13 1 13 3.00089518 15.6666667 7.00268555 21L13.0053711 13 9.00463867 13 9.00463867 3 5.00463867 3Z" id="Path-10" fill="#000000"/></g></g></g></g></symbol><symbol id="Nav-auf" viewBox="0 0 24 24"><title>Path</title><desc>Created with Sketch.</desc><g id="Icons" stroke="none" stroke-width="1" fill="none" fill-rule="evenodd"><g id="Hauptmen&#xFC;" transform="translate(-360.000000, -559.000000)"><g id="Symbol" transform="translate(334.000000, 51.000000)"><g id="Vergr&#xF6;&#xDF;ern" transform="translate(26.000000, 508.000000)"><polygon id="Path" points="0 0 24 0 24 24 0 24"/><path d="M12 3C16.968 3 21 7.032 21 12 21 16.968 16.968 21 12 21 7.032 21 3 16.968 3 12 3 7.032 7.032 3 12 3ZM10.4271255 6 9 7.41 13.6356275 12 9 16.59 10.4271255 18 16.5 12 10.4271255 6Z" id="Combined-Shape" fill="#000000" fill-rule="nonzero"/></g></g></g></g></symbol><symbol id="Nav-zu" viewBox="0 0 24 24"><title>Path</title><desc>Created with Sketch.</desc><g id="Icons" stroke="none" stroke-width="1" fill="none" fill-rule="evenodd"><g id="Hauptmen&#xFC;" transform="translate(-340.000000, -559.000000)"><g id="Symbol" transform="translate(334.000000, 51.000000)"><g id="Verkleinern" transform="translate(6.000000, 508.000000)"><polygon id="Path" points="0 0 24 0 24 24 0 24"/><path d="M12 3C16.968 3 21 7.032 21 12 21 16.968 16.968 21 12 21 7.032 21 3 16.968 3 12 3 7.032 7.032 3 12 3ZM13.5728745 6 7.5 12 13.5728745 18 15 16.59 10.3643725 12 15 7.41 13.5728745 6Z" id="Combined-Shape" fill="#000000" fill-rule="nonzero"/></g></g></g></g></symbol><symbol id="Recherche" viewBox="0 0 24 24"><title>Path</title><desc>Created with Sketch.</desc><g id="Icons" stroke="none" stroke-width="1" fill="none" fill-rule="evenodd"><g id="Hauptmen&#xFC;" transform="translate(-350.000000, -275.000000)"><g id="Symbol" transform="translate(334.000000, 51.000000)"><g id="Icon-Recherche" transform="translate(16.000000, 224.000000)"><polygon id="Path" points="0 0 24 0 24 24 0 24"/><polygon id="Path-7" fill="#000000" points="15 0 15 6 21 6"/><path d="M14 0 14 7 21 7 21 21.98 17.0057176 17.8050314 16.3733562 17.8050314 16.1492281 17.5889079C16.9336764 16.6763865 17.4059463 15.4917095 17.4059463 14.2029731 17.4059463 11.329331 15.0766152 9 12.2029731 9 9.32933105 9 7 11.329331 7 14.2029731 7 17.0766152 9.32933105 19.4059463 12.2029731 19.4059463 13.4917095 19.4059463 14.6763865 18.9336764 15.5889079 18.1492281L15.8050314 18.3733562 15.8050314 19.0057176 19.959 23 3 23 3 23 3 0 14 0ZM12.2029731 10.6009148C14.1961121 10.6009148 15.8050314 12.2098342 15.8050314 14.2029731 15.8050314 16.1961121 14.1961121 17.8050314 12.2029731 17.8050314 10.2098342 17.8050314 8.60091481 16.1961121 8.60091481 14.2029731 8.60091481 12.2098342 10.2098342 10.6009148 12.2029731 10.6009148Z" id="Combined-Shape" fill="#000000"/></g></g></g></g></symbol><symbol id="Statistik" viewBox="0 0 24 24"><title>Path</title><desc>Created with Sketch.</desc><g id="Icons" stroke="none" stroke-width="1" fill="none" fill-rule="evenodd"><g id="Hauptmen&#xFC;" transform="translate(-350.000000, -387.000000)"><g id="Symbol" transform="translate(334.000000, 51.000000)"><g id="Icon-Statistik" transform="translate(16.000000, 336.000000)"><polygon id="Path" points="0 0 24 0 24 24 0 24"/><path d="M22 12C22 17.52 17.52 22 12 22 6.48 22 2 17.52 2 12 2 6.48 6.48 2 12 2L12 2 12 12Z" id="Combined-Shape" fill="#000000" fill-rule="nonzero"/><path d="M13 1C18.52 1 23 5.48 23 11L23 11 13 11Z" id="Combined-Shape" fill="#000000" fill-rule="nonzero"/></g></g></g></g></symbol><symbol id="Uebersicht" viewBox="0 0 24 24"><title>Path</title><desc>Created with Sketch.</desc><g id="Icons" stroke="none" stroke-width="1" fill="none" fill-rule="evenodd"><g id="Hauptmen&#xFC;" transform="translate(-350.000000, -107.000000)"><g id="Symbol" transform="translate(334.000000, 51.000000)"><g id="Icon-&#xDC;bersicht" transform="translate(16.000000, 56.000000)"><polygon id="Path" points="0 0 24 0 24 24 0 24"/><path d="M22 13 22 21 2 21 2 13 22 13ZM11 3 11 11 2 11 2 3 11 3ZM22 3 22 11 13 11 13 3 22 3Z" id="Combined-Shape" fill="#000000"/></g></g></g></g></symbol></svg>
