<?xml version="1.0" encoding="UTF-8"?><!DOCTYPE svg PUBLIC "-//W3C//DTD SVG 1.1//EN""http://www.w3.org/Graphics/SVG/1.1/DTD/svg11.dtd"><svg xmlns="http://www.w3.org/2000/svg"><symbol id="Ordner" viewBox="0 0 24 24"><defs><linearGradient id="myGradient"><stop offset="50%" stop-color="#F27100"/><stop offset="50%" stop-color="#000000"/></linearGradient></defs><g fill="none" fill-rule="evenodd"><path d="M0 0h24v24H0z"/><path d="M19 15.463c0 .744-.736 1.537-1.506 1.537H6.54C5.77 17 5 16.207 5 15.463l.004-5.309L5 9.5h.004l.003-2.148c0-.7.552-1.28 1.259-1.346L6.4 6h4.2L12 7.69h5.6c.77 0 1.4.67 1.4 1.414V9.5H5.004v.654l.003.346H19z" class="coloring" fill="#000" fill-rule="nonzero"/></g></symbol><symbol id="Amtsintern" viewBox="0 0 24 24"><defs><linearGradient id="myGradient"><stop offset="50%" stop-color="#F27100"/><stop offset="50%" stop-color="#000000"/></linearGradient></defs><g fill="none" fill-rule="evenodd"><path d="M0 0h24v24H0z"/><path stroke="#FFF" fill="#333" d="M12.5 12.5h11v11h-11z"/><path fill="#FFF" d="M15.09 21.2l2.426-6.4h.998l2.414 6.4h-1.155l-1.764-5.039-1.755 5.04z"/><path class="coloring" fill="#FFF" d="M16.065 18.846h3.853l.318.908H15.75z"/></g></symbol><symbol id="Datensammlung" viewBox="0 0 24 24"><defs><linearGradient id="myGradient"><stop offset="50%" stop-color="#F27100"/><stop offset="50%" stop-color="#000000"/></linearGradient></defs><g fill="none" fill-rule="evenodd"><path d="M0 0h24v24H0z"/><path d="M11.992 19.01L5.85 14.506l-1.35.99L12 21l7.5-5.505-1.358-.998-6.15 4.514zm0-3.499L5.85 11.006l-1.35.99 7.5 5.505 7.5-5.505-1.358-.998-6.15 4.513zM12 13.997l6.133-4.5 1.367-.999L12 3 4.5 8.498l1.358.998L12 13.997z" class="coloring" fill="#000" fill-rule="nonzero"/></g></symbol><symbol id="Fachaufgabe" viewBox="0 0 24 24"><defs><linearGradient id="myGradient"><stop offset="50%" stop-color="#F27100"/><stop offset="50%" stop-color="#000000"/></linearGradient></defs><path d="M7 4c-.825 0-.992.12-.992 1L6 18.998C6 19.878 6.175 20 7 20h10c.825 0 1-.122 1-1.002V9l-5-5H7zm5.5 5.5V5L17 9.5h-4.5z" class="coloring" fill="#000" fill-rule="nonzero"/></symbol><symbol id="Geodatendienst" viewBox="0 0 24 24"><defs><linearGradient id="myGradient"><stop offset="50%" stop-color="#F27100"/><stop offset="50%" stop-color="#000000"/></linearGradient></defs><g fill="none" fill-rule="evenodd"><polygon points="0 0 24 0 24 24 0 24"/><path d="M17.9288891 12.78C17.9587826 12.53 17.9787117 12.27 17.9787117 12 17.9787117 11.73 17.9587826 11.47 17.9189246 11.22L19.6029284 9.9C19.7523961 9.78 19.7922542 9.56 19.7025735 9.39L18.1082504 6.62C18.0086052 6.44 17.7993503 6.38 17.619989 6.44L15.6370496 7.24C15.2185398 6.92 14.7801009 6.66 14.2918395 6.46L13.9929039 4.34C13.9630103 4.14 13.7936135 4 13.5943231 4L10.4056769 4C10.2063865 4 10.0469542 4.14 10.0170606 4.34L9.71812504 6.46C9.22986359 6.66 8.78146021 6.93 8.37291491 7.24L6.38997554 6.44C6.21061419 6.37 6.00135928 6.44 5.90171409 6.62L4.30739097 9.39C4.20774578 9.57 4.24760386 9.78 4.40703617 9.9L6.09103996 11.22C6.05118188 11.47 6.02128832 11.74 6.02128832 12 6.02128832 12.26 6.04121736 12.53 6.08107544 12.78L4.39707165 14.1C4.24760386 14.22 4.20774578 14.44 4.29742645 14.61L5.89174957 17.38C5.99139476 17.56 6.20064967 17.62 6.38001102 17.56L8.3629504 16.76C8.78146021 17.08 9.21989907 17.34 9.70816052 17.54L10.0070961 19.66C10.0469542 19.86 10.2063865 20 10.4056769 20L13.5943231 20C13.7936135 20 13.9630103 19.86 13.9829394 19.66L14.281875 17.54C14.7701364 17.34 15.2185398 17.07 15.6270851 16.76L17.6100245 17.56C17.7893858 17.63 17.9986407 17.56 18.0982859 17.38L19.692609 14.61C19.7922542 14.43 19.7523961 14.22 19.5929638 14.1L17.9288891 12.78 17.9288891 12.78ZM12 15C10.35 15 9 13.65 9 12 9 10.35 10.35 9 12 9 13.65 9 15 10.35 15 12 15 13.65 13.65 15 12 15Z" class="coloring" fill="#000000" fill-rule="nonzero"/></g></symbol><symbol id="Geodatensatz" viewBox="0 0 24 24"><defs><linearGradient id="myGradient"><stop offset="50%" stop-color="#F27100"/><stop offset="50%" stop-color="#000000"/></linearGradient></defs><g fill="none" fill-rule="evenodd"><path d="M0 0h24v24H0z"/><path d="M12 3c-4.968 0-9 4.032-9 9s4.032 9 9 9 9-4.032 9-9-4.032-9-9-9zm-.9 16.137A7.19 7.19 0 014.8 12c0-.558.072-1.089.189-1.611L9.3 14.7v.9c0 .99.81 1.8 1.8 1.8v1.737zm6.21-2.286A1.786 1.786 0 0015.6 15.6h-.9v-2.7c0-.495-.405-.9-.9-.9H8.4v-1.8h1.8c.495 0 .9-.405.9-.9V7.5h1.8c.99 0 1.8-.81 1.8-1.8v-.369c2.637 1.071 4.5 3.654 4.5 6.669 0 1.872-.72 3.573-1.89 4.851z" class="coloring" fill="#000" fill-rule="nonzero"/></g></symbol><symbol id="Informationssystem" viewBox="0 0 24 24"><defs><linearGradient id="myGradient"><stop offset="50%" stop-color="#F27100"/><stop offset="50%" stop-color="#000000"/></linearGradient></defs><g fill="none" fill-rule="evenodd"><path d="M0 0h24v24H0z"/><path class="coloring" d="M5 13h6V4H5v9zm0 7h6v-5H5v5zm8 0h6v-9h-6v9zm0-16v5h6V4h-6z" fill="#000" fill-rule="nonzero"/></g></symbol><symbol id="Intranet" viewBox="0 0 24 24"><defs><linearGradient id="myGradient"><stop offset="50%" stop-color="#F27100"/><stop offset="50%" stop-color="#000000"/></linearGradient></defs><g fill="none" fill-rule="evenodd"><path d="M0 0h24v24H0z"/><circle class="coloring" stroke="#FFF" fill="#979797" cx="18" cy="18" r="5.5"/></g></symbol><symbol id="Publikation-Dokument" viewBox="0 0 24 24"><defs><linearGradient id="myGradient"><stop offset="50%" stop-color="#F27100"/><stop offset="50%" stop-color="#000000"/></linearGradient></defs><g fill="none" fill-rule="evenodd"><mask id="a" fill="#fff"><path d="M0 0h24v24H0z"/></mask><path d="M19.364 4.941c-.909-.309-1.907-.441-2.864-.441-1.595 0-3.314.353-4.5 1.324C10.814 4.853 9.095 4.5 7.5 4.5c-1.595 0-3.314.353-4.5 1.324V18.75c0 .22.205.441.41.441.08 0 .122-.044.204-.044 1.104-.573 2.7-.97 3.886-.97 1.595 0 3.314.352 4.5 1.323 1.105-.75 3.11-1.324 4.5-1.324 1.35 0 2.74.265 3.886.927.082.044.123.044.205.044.204 0 .409-.22.409-.441V5.824c-.49-.398-1.023-.662-1.636-.883zm0 11.912c-.9-.309-1.882-.441-2.864-.441-1.39 0-3.395.573-4.5 1.323V7.588c1.105-.75 3.11-1.323 4.5-1.323.982 0 1.964.132 2.864.44v10.148z" class="coloring" fill="#000" fill-rule="nonzero" mask="url(#a)"/></g></symbol><symbol id="Projekt" viewBox="0 0 24 24"><defs><linearGradient id="myGradient"><stop offset="50%" stop-color="#F27100"/><stop offset="50%" stop-color="#000000"/></linearGradient></defs><g fill="none" fill-rule="evenodd"><path d="M0 0h24v24H0z"/><path d="M18.222 5.001H15C14.627 4 13.5 3 12 3S9.373 4.015 9 5.001H5.75C4.772 5.001 4 5.815 4 6.75V18.3c0 .935.8 1.7 1.778 1.7h12.444C19.2 20 20 19.235 20 18.3V6.75c0-.935-.8-1.749-1.778-1.749zM12 5c.55 0 1 .45 1 1s-.45 1-1 1-1-.45-1-1 .45-1 1-1zm5 12H7v-1h10v1zm0-3.5H7v-1h10v1zm0-3.5H7V9h10v1z" class="coloring" fill="#000" fill-rule="nonzero"/></g></symbol><symbol id="Einheit" viewBox="0 0 24 24"><defs><linearGradient id="myGradient"><stop offset="50%" stop-color="#F27100"/><stop offset="50%" stop-color="#000000"/></linearGradient></defs><g fill="none" fill-rule="evenodd"><path d="M0 0h24v24H0z"/><path d="M12 4l8 5v11h-5.5v-4.336l-.01-.142C14.358 14.51 12.797 14 12 14c-.832 0-2.5.556-2.5 1.664V20H8v-4.336l.01-.142a1.13 1.13 0 01.2-.502l-.073.008-.15.025c-.817.155-1.869.645-1.978 1.468L6 16.663V20H4V9l8-5zm3.79 11.02c.131.188.21.403.21.644V20h2v-3.337l-.01-.142c-.115-.874-1.295-1.373-2.127-1.493zm-.038-3.52a1.25 1.25 0 100 2.5c.693 0 1.248-.558 1.248-1.25s-.555-1.25-1.248-1.25zm-7.504 0C7.555 11.5 7 12.058 7 12.75S7.555 14 8.248 14a1.25 1.25 0 100-2.5zm3.755-1.5a1.5 1.5 0 100 3c.83 0 1.497-.67 1.497-1.5s-.666-1.5-1.497-1.5z" class="coloring" fill="#000" fill-rule="nonzero"/></g></symbol><symbol id="Freie-Adresse" viewBox="0 0 24 24"><defs><linearGradient id="myGradient"><stop offset="50%" stop-color="#F27100"/><stop offset="50%" stop-color="#000000"/></linearGradient></defs><g fill="none" fill-rule="evenodd"><polygon points="0 0 24 0 24 24 0 24"/><path d="M12 12C13.93375 12 15.5 10.43375 15.5 8.5 15.5 6.56625 13.93375 5 12 5 10.06625 5 8.5 6.56625 8.5 8.5 8.5 10.43375 10.06625 12 12 12ZM12 13.75C9.66375 13.75 5 14.9225 5 17.25L5 19 19 19 19 17.25C19 14.9225 14.33625 13.75 12 13.75Z" class="coloring" fill="#000000" fill-rule="nonzero"/></g></symbol><symbol id="Institution" viewBox="0 0 24 24"><defs><linearGradient id="myGradient"><stop offset="50%" stop-color="#F27100"/><stop offset="50%" stop-color="#000000"/></linearGradient></defs><g fill="none" fill-rule="evenodd"><polygon points="0 0 24 0 24 24 0 24"/><path d="M15 9 15 4 4 4 4 20 20 20 20 9 15 9ZM8 18 6 18 6 16 8 16M8 13 6 13 6 11 8 11M8 8 6 8 6 6 8 6M13 18 11 18 11 16 13 16M13 13 11 13 11 11 13 11M13 8 11 8 11 6 13 6M18 18 16 18 16 16 18 16M18 13 16 13 16 11 18 11 18 13Z" class="coloring" fill="#000000" fill-rule="nonzero"/></g></symbol><symbol id="Person-einer-Einheit" viewBox="0 0 24 24"><defs><linearGradient id="myGradient"><stop offset="50%" stop-color="#F27100"/><stop offset="50%" stop-color="#000000"/></linearGradient></defs><g fill="none" fill-rule="evenodd"><path d="M0 0h24v24H0z"/><path d="M12 5l7 4v10H5V9l7-4zm0 9c-1.335 0-4 .705-4 2.105V19h8v-2.895l-.01-.142C15.819 14.657 13.29 14 12 14zm0-5a2 2 0 10-.001 3.999A2 2 0 0012 9z" class="coloring" fill="#000" fill-rule="nonzero"/></g></symbol><symbol id="auslaendisches-vorhaben" viewBox="0 0 24 24"><defs><linearGradient id="myGradient"><stop offset="50%" stop-color="#F27100"/><stop offset="50%" stop-color="#000000"/></linearGradient></defs><path class="coloring" d="M6.00030518,3 C5.17530518,3 5.0075,3.12 5.0075,4 L5,19.9984741 C5,20.8784741 5.17530518,21 6.00030518,21 L18,21 C18.825,21 19,20.8784741 19,19.9984741 L19,8 L14,3 L6.00030518,3 Z" fill="#000000" fill-rule="nonzero"></path><text x="50%" y="50%" text-anchor="middle" stroke="#fff" fill="#fff" dy="5" font-size="12" stroke-width="0.5px" font-family="Roboto">A</text></symbol><symbol id="negative-vorpruefung" viewBox="0 0 24 24"><defs><linearGradient id="myGradient"><stop offset="50%" stop-color="#F27100"/><stop offset="50%" stop-color="#000000"/></linearGradient></defs><path class="coloring" d="M6.00030518,3 C5.17530518,3 5.0075,3.12 5.0075,4 L5,19.9984741 C5,20.8784741 5.17530518,21 6.00030518,21 L18,21 C18.825,21 19,20.8784741 19,19.9984741 L19,8 L14,3 L6.00030518,3 Z" fill="#000000" fill-rule="nonzero"></path><text x="50%" y="50%" text-anchor="middle" stroke="#fff" fill="#fff" dy="5" font-size="12" stroke-width="0.5px" font-family="Roboto">N</text></symbol><symbol id="zulassungsverfahren" viewBox="0 0 24 24"><defs><linearGradient id="myGradient"><stop offset="50%" stop-color="#F27100"/><stop offset="50%" stop-color="#000000"/></linearGradient></defs><path class="coloring" d="M6.00030518,3 C5.17530518,3 5.0075,3.12 5.0075,4 L5,19.9984741 C5,20.8784741 5.17530518,21 6.00030518,21 L18,21 C18.825,21 19,20.8784741 19,19.9984741 L19,8 L14,3 L6.00030518,3 Z" fill="#000000" fill-rule="nonzero"></path><text x="50%" y="50%" text-anchor="middle" stroke="#fff" fill="#fff" dy="5" font-size="12" stroke-width="0.5px" font-family="Roboto">Z</text></symbol><symbol id="linienbestimmungsverfahren" viewBox="0 0 24 24"><defs><linearGradient id="myGradient"><stop offset="50%" stop-color="#F27100"/><stop offset="50%" stop-color="#000000"/></linearGradient></defs><path class="coloring" d="M6.00030518,3 C5.17530518,3 5.0075,3.12 5.0075,4 L5,19.9984741 C5,20.8784741 5.17530518,21 6.00030518,21 L18,21 C18.825,21 19,20.8784741 19,19.9984741 L19,8 L14,3 L6.00030518,3 Z" fill="#000000" fill-rule="nonzero"></path><text x="50%" y="50%" text-anchor="middle" stroke="#fff" fill="#fff" dy="5" font-size="12" stroke-width="0.5px" font-family="Roboto">L</text></symbol><symbol id="raumordnungsverfahren" viewBox="0 0 24 24"><defs><linearGradient id="myGradient"><stop offset="50%" stop-color="#F27100"/><stop offset="50%" stop-color="#000000"/></linearGradient></defs><path class="coloring" d="M6.00030518,3 C5.17530518,3 5.0075,3.12 5.0075,4 L5,19.9984741 C5,20.8784741 5.17530518,21 6.00030518,21 L18,21 C18.825,21 19,20.8784741 19,19.9984741 L19,8 L14,3 L6.00030518,3 Z" fill="#000000" fill-rule="nonzero"></path><text x="50%" y="50%" text-anchor="middle" stroke="#fff" fill="#fff" dy="5" font-size="12" stroke-width="0.5px" font-family="Roboto">R</text></symbol><symbol id="bauleitplanung" viewBox="0 0 24 24"><defs><linearGradient id="myGradient"><stop offset="50%" stop-color="#F27100"/><stop offset="50%" stop-color="#000000"/></linearGradient></defs><path class="coloring" d="M6.00030518,3 C5.17530518,3 5.0075,3.12 5.0075,4 L5,19.9984741 C5,20.8784741 5.17530518,21 6.00030518,21 L18,21 C18.825,21 19,20.8784741 19,19.9984741 L19,8 L14,3 L6.00030518,3 Z" fill="#000000" fill-rule="nonzero"></path><text x="50%" y="50%" text-anchor="middle" stroke="#fff" fill="#fff" dy="5" font-size="12" stroke-width="0.5px" font-family="Roboto">B</text></symbol></svg>
