<?xml version="1.0" encoding="UTF-8"?><!DOCTYPE svg PUBLIC"-//W3C//DTD SVG 1.1//EN""http://www.w3.org/Graphics/SVG/1.1/DTD/svg11.dtd"><svg xmlns="http://www.w3.org/2000/svg" xmlns:xlink="http://www.w3.org/1999/xlink"><defs><rect id="path-1" x="0" y="0" width="24" height="24"/><rect id="path-1" x="0" y="0" width="24" height="24"/></defs><symbol id="arrow_drop_down-24px" viewBox="0 0 24 24"><title>Path</title><desc>Created with Sketch.</desc><g id="Icons" stroke="none" stroke-width="1" fill="none" fill-rule="evenodd"><g id="Funktionsicons" transform="translate(-406.000000, -388.000000)"><g id="Symbol" transform="translate(402.000000, 107.000000)"><g id="arrow_drop_down-24px" transform="translate(4.000000, 281.000000)"><polygon id="Path" points="0 0 24 0 24 24 0 24"/><polygon id="Path" fill="#000000" fill-rule="nonzero" points="7 10 12 15 17 10"/></g></g></g></g></symbol><symbol id="baseline-add-24px" viewBox="0 0 24 24"><title>Path</title><desc>Created with Sketch.</desc><g id="Icons" stroke="none" stroke-width="1" fill="none" fill-rule="evenodd"><g id="Funktionsicons" transform="translate(-406.000000, -428.000000)"><g id="Symbol" transform="translate(402.000000, 107.000000)"><g id="baseline-add-24px" transform="translate(4.000000, 321.000000)"><polygon id="Path" points="0 0 24 0 24 24 0 24"/><polygon id="Path" fill="#000000" fill-rule="nonzero" points="19 13 13 13 13 19 11 19 11 13 5 13 5 11 11 11 11 5 13 5 13 11 19 11"/></g></g></g></g></symbol><symbol id="baseline-calendar_today-24px" viewBox="0 0 24 24"><title>Path</title><desc>Created with Sketch.</desc><g id="Icons" stroke="none" stroke-width="1" fill="none" fill-rule="evenodd"><g id="Funktionsicons" transform="translate(-406.000000, -468.000000)"><g id="Symbol" transform="translate(402.000000, 107.000000)"><g id="baseline-calendar_today-24px" transform="translate(4.000000, 361.000000)"><polygon id="Path" points="0 0 24 0 24 24 0 24"/><path d="M20 3 19 3 19 1 17 1 17 3 7 3 7 1 5 1 5 3 4 3C2.9 3 2 3.9 2 5L2 21C2 22.1 2.9 23 4 23L20 23C21.1 23 22 22.1 22 21L22 5C22 3.9 21.1 3 20 3ZM20 21 4 21 4 8 20 8 20 21Z" id="Shape" fill="#000000" fill-rule="nonzero"/></g></g></g></g></symbol><symbol id="baseline-check-24px" viewBox="0 0 24 24"><title>Path</title><desc>Created with Sketch.</desc><g id="Icons" stroke="none" stroke-width="1" fill="none" fill-rule="evenodd"><g id="Funktionsicons" transform="translate(-407.000000, -868.000000)"><g id="Symbol" transform="translate(402.000000, 107.000000)"><g id="baseline-check-24px" transform="translate(5.000000, 761.000000)"><polygon id="Path" fill="#000000" fill-rule="nonzero" points="7.62706083 16.4354747 1.93746447 10.7458783 0 12.6696987 7.62706083 20.2967595 24 3.92382035 22.0761796 2"/></g></g></g></g></symbol><symbol id="baseline-clear-24px" viewBox="0 0 24 24"><title>Path</title><desc>Created with Sketch.</desc><g id="Icons" stroke="none" stroke-width="1" fill="none" fill-rule="evenodd"><g id="Funktionsicons" transform="translate(-407.000000, -1068.000000)"><g id="Symbol" transform="translate(402.000000, 107.000000)"><g id="baseline-clear-24px" transform="translate(5.000000, 961.000000)"><polygon id="Path" points="0 0 24 0 24 24 0 24"/><polygon id="Path" fill="#000000" fill-rule="nonzero" points="19 6.41 17.59 5 12 10.59 6.41 5 5 6.41 10.59 12 5 17.59 6.41 19 12 13.41 17.59 19 19 17.59 13.41 12"/></g></g></g></g></symbol><symbol id="chevron_right-24px" viewBox="0 0 24 24"><title>Path</title><desc>Created with Sketch.</desc><g id="Icons" stroke="none" stroke-width="1" fill="none" fill-rule="evenodd"><g id="Funktionsicons" transform="translate(-406.000000, -227.000000)"><g id="Symbol" transform="translate(402.000000, 107.000000)"><g id="chevron_right-24px" transform="translate(4.000000, 120.000000)"><polygon id="Path" points="0 0 24 0 24 24 0 24"/><polygon id="Path" fill="#000000" fill-rule="nonzero" points="10 6 8.59 7.41 13.17 12 8.59 16.59 10 18 16 12"/></g></g></g></g></symbol><symbol id="Entfernen" viewBox="0 0 24 24"><title>Path</title><desc>Created with Sketch.</desc><g id="Icons" stroke="none" stroke-width="1" fill="none" fill-rule="evenodd"><g id="Funktionsicons" transform="translate(-407.000000, -1028.000000)"><g id="Symbol" transform="translate(402.000000, 107.000000)"><g id="baseline-add_circle-24px" transform="translate(2.000000, 918.000000)"><polygon id="Path" points="3 3 27 3 27 27 3 27"/><path d="M15 5C9.48 5 5 9.48 5 15 5 20.52 9.48 25 15 25 20.52 25 25 20.52 25 15 25 9.48 20.52 5 15 5ZM20 16 16 16 16 20 14 20 14 16 10 16 10 14 14 14 14 10 16 10 16 14 20 14 20 16Z" id="Shape" fill="#000000" fill-rule="nonzero" transform="translate(15.000000, 15.000000) rotate(45.000000) translate(-15.000000, -15.000000) "/></g></g></g></g></symbol><symbol id="Hilfe" viewBox="0 0 24 24"><title>Path</title><desc>Created with Sketch.</desc><g id="Dashboard-&amp;-Top-Level-Pages" stroke="none" stroke-width="1" fill="none" fill-rule="evenodd"><g id="Erweiterte-Suchergebnis" transform="translate(-1380.000000, -178.000000)"><g id="Suchergebnis" transform="translate(468.000000, 48.000000)"><g id="baseline-help-24px" transform="translate(912.000000, 130.000000)"><polygon id="Path" points="0 0 24 0 24 24 0 24"/><path d="M13 19 11 19 11 17 13 17 13 19ZM15.07 11.25 14.17 12.17C13.45 12.9 13 13.5 13 15L11 15 11 14.5C11 13.4 11.45 12.4 12.17 11.67L13.41 10.41C13.78 10.05 14 9.55 14 9 14 7.9 13.1 7 12 7 10.9 7 10 7.9 10 9L8 9C8 6.79 9.79 5 12 5 14.21 5 16 6.79 16 9 16 9.88 15.64 10.68 15.07 11.25Z" id="Shape" fill="#28225B" fill-rule="nonzero"/></g></g></g></g></symbol><symbol id="Info" viewBox="0 0 24 24"><title>Path Copy 2</title><desc>Created with Sketch.</desc><g id="Icons" stroke="none" stroke-width="1" fill="none" fill-rule="evenodd"><g id="Funktionsicons" transform="translate(-407.000000, -788.000000)"><g id="Symbol" transform="translate(402.000000, 107.000000)"><g id="Info-i" transform="translate(5.000000, 681.000000)"><polygon id="Path-Copy-2" points="0 0 24 0 24 24 0 24"/><path d="M13 11 13 17 11 17 11 11 13 11ZM13 7 13 9 11 9 11 7 13 7Z" id="Combined-Shape" fill="#000000"/></g></g></g></g></symbol><symbol id="keyboard_arrow_down-24px" viewBox="0 0 24 24"><title>Path</title><desc>Created with Sketch.</desc><g id="Icons" stroke="none" stroke-width="1" fill="none" fill-rule="evenodd"><g id="Funktionsicons" transform="translate(-406.000000, -269.000000)"><g id="Symbol" transform="translate(402.000000, 107.000000)"><g id="keyboard_arrow_down-24px" transform="translate(4.000000, 162.000000)"><polygon id="Path" points="0 0 24 0 24 24 0 24"/><polygon id="Path" fill="#000000" fill-rule="nonzero" points="7.41 8.59 12 13.17 16.59 8.59 18 10 12 16 6 10"/></g></g></g></g></symbol><symbol id="Liste-default" viewBox="0 0 24 24"><title>Path</title><desc>Created with Sketch.</desc><g id="Icons" stroke="none" stroke-width="1" fill="none" fill-rule="evenodd"><g id="Funktionsicons" transform="translate(-407.000000, -628.000000)"><g id="Symbol" transform="translate(402.000000, 107.000000)"><g id="outline-format_indent_decrease-24px" transform="translate(5.000000, 521.000000)"><polygon id="Path" points="0 0 24 0 24 24 0 24"/><path d="M5 15 19 15 19 13 5 13 5 15ZM5 19 19 19 19 17 5 17 5 19ZM5 7 19 7 19 5 5 5 5 7ZM5 11 19 11 19 9 5 9 5 11Z" id="Shape" fill="#000000" fill-rule="nonzero"/></g></g></g></g></symbol><symbol id="Liste-erweitert" viewBox="0 0 24 24"><title>Path</title><desc>Created with Sketch.</desc><g id="Icons" stroke="none" stroke-width="1" fill="none" fill-rule="evenodd"><g id="Funktionsicons" transform="translate(-407.000000, -668.000000)"><g id="Symbol" transform="translate(402.000000, 107.000000)"><g id="baseline-dashboard-24px" transform="translate(5.000000, 561.000000)"><polygon id="Path" points="0 0 24 0 24 24 0 24"/><path d="M5 11 19 11 19 5 5 5 5 11ZM5 19 19 19 19 13 5 13 5 19Z" id="Shape" fill="#000000" fill-rule="nonzero"/></g></g></g></g></symbol><symbol id="Mehr" viewBox="0 0 24 24"><title>Rectangle</title><desc>Created with Sketch.</desc><g id="Icons" stroke="none" stroke-width="1" fill="none" fill-rule="evenodd"><g id="Funktionsicons" transform="translate(-406.000000, -349.000000)"><g id="Symbol" transform="translate(402.000000, 107.000000)"><g id="Icon-Aktionen" transform="translate(4.000000, 242.000000)"><mask id="mask-2" fill="white"><use xlink:href="#path-1"/></mask><g id="Rectangle"/><path d="M12 16C12.8284271 16 13.5 16.6715729 13.5 17.5 13.5 18.3284271 12.8284271 19 12 19 11.1715729 19 10.5 18.3284271 10.5 17.5 10.5 16.6715729 11.1715729 16 12 16ZM12 10C12.8284271 10 13.5 10.6715729 13.5 11.5 13.5 12.3284271 12.8284271 13 12 13 11.1715729 13 10.5 12.3284271 10.5 11.5 10.5 10.6715729 11.1715729 10 12 10ZM12 4C12.8284271 4 13.5 4.67157288 13.5 5.5 13.5 6.32842712 12.8284271 7 12 7 11.1715729 7 10.5 6.32842712 10.5 5.5 10.5 4.67157288 11.1715729 4 12 4Z" id="Combined-Shape" fill="#000000" mask="url(#mask-2)"/></g></g></g></g></symbol><symbol id="Naechster-Fehler" viewBox="0 0 24 24"><title>Path</title><desc>Created with Sketch.</desc><g id="Icons" stroke="none" stroke-width="1" fill="none" fill-rule="evenodd"><g id="Funktionsicons" transform="translate(-407.000000, -988.000000)"><g id="Symbol" transform="translate(402.000000, 107.000000)"><g id="arrow_right-24px" transform="translate(5.000000, 881.000000)"><polygon id="Path" points="0 24 0 0 24 0 24 24"/><polygon id="Path" fill="#000000" fill-rule="nonzero" points="10 19 17 12 10 5"/></g></g></g></g></symbol><symbol id="Ordner" viewBox="0 0 24 24"><title>Path</title><desc>Created with Sketch.</desc><g id="Icons" stroke="none" stroke-width="1" fill="none" fill-rule="evenodd"><g id="Funktionsicons" transform="translate(-407.000000, -828.000000)"><g id="Symbol" transform="translate(402.000000, 107.000000)"><g id="baseline-folder-24px" transform="translate(5.000000, 721.000000)"><polygon id="Path" points="0 0 24 0 24 24 0 24"/><path d="M19 15.4632741C19 16.2068171 18.2635303 17 17.4935303 17L17.4935303 17 6.54047852 17C5.77047852 17 5 16.2068171 5 15.4632741L5 15.4632741 5.004 10.154 5 9.5 5.004 9.5 5.007 7.3518963C5.007 6.65209116 5.55886159 6.07203876 6.26574048 6.00621878L6.4 6 10.6 6 12 7.68987038 17.6 7.68987038C18.37 7.68987038 19 8.36009592 19 9.10363889L19 9.10363889 19 9.5 5.004 9.5 5.004 10.154 5.007 10.5 19 10.5Z" id="Path-2" fill="#000000" fill-rule="nonzero"/></g></g></g></g></symbol><symbol id="perm_identity-24px" viewBox="0 0 24 24"><title>Path</title><desc>Created with Sketch.</desc><g id="Icons" stroke="none" stroke-width="1" fill="none" fill-rule="evenodd"><g id="Funktionsicons" transform="translate(-406.000000, -147.000000)"><g id="Symbol" transform="translate(402.000000, 107.000000)"><g id="_perm_identity-24px" transform="translate(4.000000, 40.000000)"><polygon id="Path" points="0 0 24 0 24 24 0 24"/><path d="M12 6C13.1 6 14 6.9 14 8 14 9.1 13.1 10 12 10 10.9 10 10 9.1 10 8 10 6.9 10.9 6 12 6M12 15C14.7 15 17.8 16.29 18 17L18 18 6 18 6 17.01C6.2 16.29 9.3 15 12 15M12 4C9.79 4 8 5.79 8 8 8 10.21 9.79 12 12 12 14.21 12 16 10.21 16 8 16 5.79 14.21 4 12 4L12 4ZM12 13C9.33 13 4 14.34 4 17L4 20 20 20 20 17C20 14.34 14.67 13 12 13L12 13Z" id="Shape" fill="#000000" fill-rule="nonzero"/></g></g></g></g></symbol><symbol id="refresh-24px" viewBox="0 0 24 24"><title>Rectangle</title><desc>Created with Sketch.</desc><g id="Icons" stroke="none" stroke-width="1" fill="none" fill-rule="evenodd"><g id="Funktionsicons" transform="translate(-406.000000, -187.000000)"><g id="Symbol" transform="translate(402.000000, 107.000000)"><g id="Icon-Aktualisieren" transform="translate(4.000000, 80.000000)"><mask id="mask-2" fill="white"><use xlink:href="#path-1"/></mask><g id="Rectangle"/><path d="M17.6 6.4C16.2 4.9 14.2 4 12 4 7.6 4 4 7.6 4 12 4 16.4 7.6 20 12 20 15.7 20 18.8 17.4 19.7 14L17.6 14C16.8 16.3 14.6 18 12 18 8.7 18 6 15.3 6 12 6 8.7 8.7 6 12 6 13.7 6 15.1 6.7 16.2 7.8L13 11 20 11 20 4 17.6 6.4 17.6 6.4Z" id="Shape" fill="#000000" mask="url(#mask-2)"/></g></g></g></g></symbol><symbol id="Schlagwort" viewBox="0 0 25 25"><title>Path Copy</title><desc>Created with Sketch.</desc><g id="Icons" stroke="none" stroke-width="1" fill="none" fill-rule="evenodd"><g id="Funktionsicons" transform="translate(-407.000000, -547.000000)"><g id="Symbol" transform="translate(402.000000, 107.000000)"><g id="Schlagwort" transform="translate(5.000000, 441.000000)"><g id="baseline-label-24px" transform="translate(13.000000, 13.000000) rotate(45.000000) translate(-13.000000, -13.000000) translate(5.000000, 8.000000)"/><polygon id="Path-Copy" points="0 0 24 0 24 24 0 24"/><path d="M14.6315789 6C15.2310526 6 15.7678947 6.23571429 16.09 6.6L16.09 6.6 20 11 16.09 15.4C15.7678947 15.7642857 15.2310526 16 14.6315789 16L14.6315789 16 4.78947368 15.9928571C3.80526316 15.9928571 3 15.3571429 3 14.5714286L3 14.5714286 3 7.42857143C3 6.64285714 3.80526316 6.00714286 4.78947368 6.00714286L4.78947368 6.00714286ZM15 9.5C14.1715729 9.5 13.5 10.1715729 13.5 11 13.5 11.8284271 14.1715729 12.5 15 12.5 15.8284271 12.5 16.5 11.8284271 16.5 11 16.5 10.1715729 15.8284271 9.5 15 9.5Z" id="Combined-Shape" fill="#000000" fill-rule="nonzero" transform="translate(11.500000, 11.000000) scale(-1, 1) rotate(-45.000000) translate(-11.500000, -11.000000) "/></g></g></g></g></symbol><symbol id="Trenner" viewBox="0 0 24 24"><title>Path</title><desc>Created with Sketch.</desc><g id="Icons" stroke="none" stroke-width="1" fill="none" fill-rule="evenodd"><g id="Funktionsicons" transform="translate(-406.000000, -309.000000)"><g id="Symbol" transform="translate(402.000000, 107.000000)"><g id="_more_vert-24px" transform="translate(4.000000, 202.000000)"><polygon id="Path" points="0 0 24 0 24 24 0 24"/><path d="M12 6C13.1 6 14 5.1 14 4 14 2.9 13.1 2 12 2 10.9 2 10 2.9 10 4 10 5.1 10.9 6 12 6ZM12 9.5C10.9 9.5 10 10.4 10 11.5 10 12.6 10.9 13.5 12 13.5 13.1 13.5 14 12.6 14 11.5 14 10.4 13.1 9.5 12 9.5ZM12 17C10.9 17 10 17.9 10 19 10 20.1 10.9 21 12 21 13.1 21 14 20.1 14 19 14 17.9 13.1 17 12 17Z" id="Shape" fill="#000000" fill-rule="nonzero"/></g></g></g></g></symbol><symbol id="Vorheriger-Fehler" viewBox="0 0 24 24"><title>Path</title><desc>Created with Sketch.</desc><g id="Icons" stroke="none" stroke-width="1" fill="none" fill-rule="evenodd"><g id="Funktionsicons" transform="translate(-407.000000, -948.000000)"><g id="Symbol" transform="translate(402.000000, 107.000000)"><g id="arrow_left-24px" transform="translate(5.000000, 841.000000)"><polygon id="Path" points="0 24 0 0 24 0 24 24"/><polygon id="Path" fill="#000000" fill-rule="nonzero" transform="translate(10.500000, 12.000000) scale(-1, 1) translate(-10.500000, -12.000000) " points="7 19 14 12 7 5"/></g></g></g></g></symbol><symbol id="warning-24px" viewBox="0 0 24 24"><title>Path</title><desc>Created with Sketch.</desc><g id="Icons" stroke="none" stroke-width="1" fill="none" fill-rule="evenodd"><g id="Funktionsicons" transform="translate(-407.000000, -909.000000)"><g id="Symbol" transform="translate(402.000000, 107.000000)"><g id="warning-24px" transform="translate(5.000000, 802.000000)"><polygon id="Path" points="0 0 24 0 24 24 0 24"/><path d="M1 21 23 21 12 2 1 21ZM13 18 11 18 11 16 13 16 13 18ZM13 14 11 14 11 10 13 10 13 14Z" id="Shape" fill="#000000" fill-rule="nonzero"/></g></g></g></g></symbol><symbol id="info-24px" viewBox="0 0 24 24"><g id="InGrid-Editor-–-Daten" stroke="none" stroke-width="1" fill="none" fill-rule="evenodd"><g id="Content,-Info-–-labelbezogen" transform="translate(-475.000000, -388.000000)"><g id="Allgemeines" transform="translate(468.000000, 271.000000)"><g id="Info-Layer,-Labelspalte" transform="translate(0.000000, 106.000000)"><g id="Info-i-Copy-3" transform="translate(7.000000, 11.000000)"><polygon id="Path-Copy-4" points="0 0 24 0 24 24 0 24"></polygon><rect id="Rectangle" fill="#000000" x="11" y="7" width="2" height="2"></rect><rect id="Rectangle-Copy-10" fill="#000000" x="11" y="11" width="2" height="6"></rect></g></g></g></g></g></symbol><symbol id="spatial-rect" width="36" height="36" xmlns="http://www.w3.org/2000/svg"><g fill="none" fill-rule="evenodd"><path d="M0 0h36v36H0z"/><path class="coloring" fill-rule="nonzero" d="M26 19h-7v7h-2v-7h-7v-2h7v-7h2v7h7z"/><path class="coloring-stroke" d="M2 25v6h6M34 25v6h-6M34 11V5h-6M2 11V5h6"/></g></symbol><symbol id="tag" width="24" height="24" xmlns="http://www.w3.org/2000/svg"><g fill="#000" fill-rule="nonzero"><path d="M21.41 11.58l-9-9C12.05 2.22 11.55 2 11 2H4c-1.1 0-2 .9-2 2v7c0 .55.22 1.05.59 1.42l9 9c.36.36.86.58 1.41.58.55 0 1.05-.22 1.41-.59l7-7c.37-.36.59-.86.59-1.41 0-.55-.23-1.06-.59-1.42zM13 20.01L4 11V4h7v-.01l9 9-7 7.02z"/><circle cx="7.5" cy="7.5" r="1.5"/></g></symbol></svg>
