<?xml version="1.0"?><svg width="62" height="70" xmlns="http://www.w3.org/2000/svg"><g class="layer"><g id="symbol"><path class="st2" d="M29.7 36.8V2.9l23.7 11.2-23.7 22.7z" id="svg_1"/><path class="st3" d="M29.7 36.8l27.5 2-3.9-24.7-23.6 22.7z" id="svg_2"/><path d="M29.7 36.8l27.5 2-11.3 7.8-16.2-9.8z" id="svg_3" fill="#0f8737"/><path d="M29.7 36.8l14.8 23.4L46 46.5l-16.3-9.7z" id="svg_4" fill="#006532"/><path class="st3" d="M29.7 36.8v31.1l14.8-7.7-14.8-23.4z" fill="#000" id="svg_5"/><path class="st2" d="M29.7 36.8v31.1l-14.8-7.7 14.8-23.4z" id="svg_6"/><path class="st6" d="M29.7 36.8L5 41.8l9.9 18.4 14.8-23.4z" id="svg_7"/><path d="M29.7 36.8L5 41.8l2.9-19.7 21.8 14.7z" id="svg_8" fill="#b8d16a"/><path class="st6" d="M29.7 36.8V2.9L8 22.1l21.7 14.7z" fill="#000" id="svg_9"/></g></g></svg>
