<?xml version="1.0"?><svg width="62" height="70" xmlns="http://www.w3.org/2000/svg"><style>.st0{fill:#999999;} .st1{fill:#28225B;} .st2{fill:#75B641;} .st3{fill:#4EAD46;} .st4{fill:#0F8737;} .st5{fill:#006532;} .st6{fill:#92C049;} .st7{fill:#B8D16A;}</style><g class="layer"><g id="symbol"><path class="st2" d="M29.7 36.8V2.9l23.7 11.2-23.7 22.7z" /><path class="st3" d="M29.7 36.8l27.5 2-3.9-24.7-23.6 22.7z" /><path d="M29.7 36.8l27.5 2-11.3 7.8-16.2-9.8z"  fill="#0f8737"/><path d="M29.7 36.8l14.8 23.4L46 46.5l-16.3-9.7z"  fill="#006532"/><path class="st3" d="M29.7 36.8v31.1l14.8-7.7-14.8-23.4z" fill="#000" /><path class="st2" d="M29.7 36.8v31.1l-14.8-7.7 14.8-23.4z" /><path class="st6" d="M29.7 36.8L5 41.8l9.9 18.4 14.8-23.4z" /><path d="M29.7 36.8L5 41.8l2.9-19.7 21.8 14.7z"  fill="#b8d16a"/><path class="st6" d="M29.7 36.8V2.9L8 22.1l21.7 14.7z" fill="#000" /></g></g></svg>
